<svg version="1.1" class="highcharts-root" style="font-family: &quot;Lucida Grande&quot;, &quot;Lucida Sans Unicode&quot;, Arial, Helvetica, sans-serif; font-size: 12px;" xmlns="http://www.w3.org/2000/svg" width="915" height="630" viewBox="0 0 915 630" role="img" aria-label="Chart title">
  <g transform="translate(111.37331838565018,810.4682361733932) scale(0.11148480318883908 -0.11148480318883908)" stroke-width="8.969832402234635">
    <path fill="#f7f7f7" d="M -997 5645 L -985 5636 L -968 5667 L -974 5674 L -960 5675 L -956 5694 L -929 5712 L -928 5733 L -941 5745 L -939 5788 L -963 5819 L -959 5836 L -876 5799 L -836 5757 L -823 5755 L -830 5771 L -797 5786 L -801 5768 L -793 5765 L -805 5755 L -801 5743 L -794 5753 L -790 5743 L -799 5721 L -791 5721 L -788 5734 L -777 5710 L -791 5692 L -782 5695 L -785 5686 L -776 5682 L -771 5689 L -769 5679 L -799 5681 L -766 5665 L -786 5665 L -777 5658 L -788 5654 L -778 5626 L -792 5601 L -803 5605 L -806 5587 L -790 5553 L -770 5629 L -786 5552 L -767 5535 L -745 5534 L -747 5512 L -715 5495 L -701 5464 L -705 5453 L -727 5465 L -749 5448 L -796 5496 L -805 5536 L -832 5535 L -838 5547 L -867 5550 L -888 5584 L -913 5601 L -942 5600 L -970 5612 L -997 5645 L -997 5645 Z" stroke="#cccccc" stroke-width="inherit" opacity="1" class="highcharts-point highcharts-null-point highcharts-name-crimea highcharts-key-ru-kr"></path>
  <path fill="rgb(139,127,154)" d="M 5360 4102 L 5451 4089 L 5575 4096 L 5614 4058 L 5360 4102 L 5360 4102 M 5053 4192 L 4791 4255 L 4716 4291 L 5001 4217 L 5053 4192 L 5053 4192 M 7029 4300 L 6958 4183 L 6857 4130 L 6883 4193 L 6981 4233 L 7020 4305 L 7021 4304 L 7029 4300 L 7029 4300 M 6918 4333 L 6872 4293 L 6812 4276 L 6792 4294 L 6735 4212 L 6745 4131 L 6780 3994 L 6866 3816 L 6850 3806 L 6788 3928 L 6745 3890 L 6764 3981 L 6747 3993 L 6728 4087 L 6702 4070 L 6641 4138 L 6695 4157 L 6710 4189 L 6663 4223 L 6614 4205 L 6624 4134 L 6589 4054 L 6531 4026 L 6484 4060 L 6507 4154 L 6554 4173 L 6573 4134 L 6584 4202 L 6566 4227 L 6529 4188 L 6418 4249 L 6424 4157 L 6371 4267 L 6335 4307 L 6314 4266 L 6349 4220 L 6324 4192 L 6300 4243 L 6271 4219 L 6310 4165 L 6247 4176 L 6210 4234 L 6154 4261 L 6066 4273 L 6012 4246 L 6014 4206 L 5987 4162 L 5966 4190 L 5926 4159 L 5942 4128 L 5916 4090 L 5858 4096 L 5816 4142 L 5773 4134 L 5775 4171 L 5725 4164 L 5738 4251 L 5700 4187 L 5667 4171 L 5604 4202 L 5600 4163 L 5534 4152 L 5456 4170 L 5328 4143 L 5274 4117 L 5122 4166 L 5127 4236 L 5030 4246 L 4989 4293 L 4969 4285 L 4886 4343 L 4883 4306 L 4814 4329 L 4843 4370 L 4938 4371 L 4998 4409 L 4964 4460 L 4844 4493 L 4844 4493 L 4867 4528 L 4981 4512 L 5030 4517 L 5133 4478 L 5187 4474 L 5217 4520 L 5290 4588 L 5320 4591 L 5367 4639 L 5218 4567 L 5172 4561 L 5120 4600 L 5053 4560 L 5035 4603 L 4976 4624 L 4940 4709 L 5008 4731 L 5070 4730 L 5103 4783 L 5188 4779 L 5207 4813 L 5297 4814 L 5301 4843 L 5386 4820 L 5403 4800 L 5478 4800 L 5552 4832 L 5469 4844 L 5598 4903 L 5560 4918 L 5573 4958 L 5604 4931 L 5627 4972 L 5542 5027 L 5536 5052 L 5574 5128 L 5619 5124 L 5673 5168 L 5654 5206 L 5666 5256 L 5650 5306 L 5605 5330 L 5629 5367 L 5666 5337 L 5660 5441 L 5644 5489 L 5770 5446 L 5795 5410 L 5883 5442 L 5936 5483 L 5950 5428 L 5993 5403 L 6145 5430 L 6242 5400 L 6332 5399 L 6394 5212 L 6453 5216 L 6474 5251 L 6516 5256 L 6504 5212 L 6528 5070 L 6547 5058 L 6565 4972 L 6589 4937 L 6661 4905 L 6712 4817 L 6645 4718 L 6610 4689 L 6675 4662 L 6670 4608 L 6694 4561 L 6756 4554 L 6755 4516 L 6799 4517 L 6870 4479 L 6889 4343 L 6918 4333 L 6918 4333 Z" stroke="#cccccc" stroke-width="inherit" opacity="1" class="highcharts-point highcharts-name-adygey highcharts-key-ru-ad" data-z-index="0"></path>
  </g>
</svg> 