 
<svg version="1.1" id="Слой_1" xmlns="http://www.w3.org/2000/svg" xmlns:xlink="http://www.w3.org/1999/xlink" x="0px" y="0px"
	 viewBox="0 0 915 630" style="enable-background:new 0 0 915 630;" xml:space="preserve">
 




<g transform="translate(111.37331838565018,810.4682361733932) scale(0.11148480318883908 -0.11148480318883908)">

<path fill="rgb(176,118,133)" d="M 2743 7085 L 2738 7043 L 2715 7028 L 2723 7057 L 2713 7084 L 2743 7085 L 2743 7085 M 3577 8069 L 3557 8113 L 3583 8105 L 3576 8074 L 3612 8055 L 3587 8020 L 3564 8042 L 3577 8069 L 3577 8069 M 3545 8085 L 3508 8095 L 3508 8114 L 3532 8119 L 3545 8085 L 3545 8085 M 3625 7993 L 3663 7995 L 3628 7970 L 3602 8021 L 3620 8071 L 3650 8050 L 3656 8022 L 3626 8029 L 3625 7993 L 3625 7993 M 3681 8126 L 3697 8118 L 3667 8105 L 3653 8155 L 3681 8126 L 3681 8126 M 3828 8074 L 3826 8030 L 3794 8016 L 3763 8022 L 3761 8049 L 3801 8052 L 3828 8074 L 3828 8074 M 3698 8152 L 3686 8141 L 3655 8170 L 3660 8191 L 3674 8170 L 3680 8188 L 3698 8152 L 3698 8152 M 3415 8268 L 3487 8236 L 3474 8205 L 3472 8236 L 3410 8230 L 3415 8268 L 3415 8268 M 3735 8076 L 3722 8098 L 3762 8093 L 3745 8080 L 3751 8044 L 3736 8025 L 3699 8010 L 3671 8047 L 3696 8078 L 3730 8066 L 3735 8076 L 3735 8076 M 3621 8123 L 3598 8127 L 3591 8152 L 3628 8152 L 3628 8178 L 3647 8151 L 3663 8100 L 3619 8096 L 3621 8123 L 3621 8123 M 1589 6092 L 1569 6117 L 1578 6129 L 1541 6172 L 1515 6159 L 1506 6208 L 1485 6209 L 1467 6244 L 1477 6259 L 1457 6280 L 1424 6256 L 1378 6316 L 1387 6330 L 1361 6344 L 1322 6333 L 1296 6355 L 1289 6388 L 1266 6393 L 1251 6438 L 1225 6456 L 1202 6439 L 1187 6485 L 1134 6519 L 1131 6543 L 1110 6555 L 1105 6588 L 1082 6597 L 1085 6641 L 1090 6655 L 1088 6659 L 1090 6662 L 1092 6659 L 1098 6675 L 1131 6718 L 1188 6748 L 1216 6801 L 1245 6830 L 1229 6854 L 1224 6900 L 1238 6931 L 1280 6965 L 1285 6996 L 1313 6976 L 1356 6995 L 1368 6942 L 1412 6917 L 1453 6948 L 1453 6974 L 1427 7000 L 1460 7079 L 1479 7064 L 1511 7072 L 1520 7024 L 1515 6993 L 1536 6939 L 1541 6890 L 1568 6890 L 1597 6873 L 1615 6885 L 1641 6960 L 1668 6974 L 1699 6964 L 1748 6964 L 1777 6946 L 1823 6945 L 1901 6958 L 1865 6943 L 1860 6923 L 1893 6897 L 1890 6827 L 1930 6853 L 1961 6754 L 1983 6724 L 1997 6671 L 2020 6647 L 2073 6661 L 2110 6626 L 2030 6535 L 2060 6514 L 2047 6450 L 2058 6423 L 2023 6401 L 1998 6436 L 1978 6429 L 1956 6453 L 1905 6448 L 1902 6474 L 1788 6568 L 1760 6576 L 1759 6533 L 1777 6500 L 1782 6468 L 1771 6437 L 1750 6422 L 1761 6373 L 1734 6360 L 1707 6362 L 1696 6334 L 1668 6305 L 1662 6280 L 1692 6277 L 1720 6252 L 1762 6292 L 1798 6279 L 1830 6240 L 1761 6184 L 1747 6185 L 1701 6150 L 1714 6120 L 1668 6083 L 1612 6108 L 1589 6092 L 1589 6092 M 3721 8191 L 3733 8197 L 3733 8197 L 3733 8197 L 3732 8191 L 3721 8191 L 3721 8191 L 3721 8191 M 3721 8191 L 3720 8191 L 3723 8160 L 3751 8128 L 3723 8144 L 3693 8191 L 3721 8191 L 3721 8191 L 3721 8191 M 3000 7251 L 2998 7262 L 2958 7278 L 2995 7294 L 2979 7305 L 2977 7333 L 3035 7332 L 3067 7358 L 3091 7354 L 3092 7372 L 3124 7357 L 3114 7394 L 3147 7384 L 3141 7409 L 3174 7405 L 3153 7429 L 3164 7448 L 3176 7424 L 3221 7452 L 3238 7429 L 3247 7456 L 3272 7452 L 3331 7477 L 3368 7464 L 3374 7479 L 3398 7462 L 3411 7486 L 3430 7481 L 3464 7446 L 3570 7455 L 3632 7486 L 3656 7486 L 3680 7469 L 3685 7439 L 3674 7410 L 3643 7388 L 3591 7371 L 3451 7360 L 3426 7365 L 3355 7361 L 3282 7323 L 3255 7301 L 3236 7314 L 3217 7292 L 3195 7329 L 3187 7275 L 3167 7279 L 3115 7234 L 3043 7198 L 3015 7226 L 3030 7203 L 3015 7185 L 2981 7192 L 3001 7175 L 2983 7157 L 2969 7167 L 2916 7119 L 2915 7101 L 2880 7078 L 2888 7068 L 2871 7029 L 2860 6976 L 2867 6903 L 2880 6872 L 2863 6862 L 2801 6897 L 2792 6934 L 2765 6918 L 2757 6964 L 2742 6965 L 2718 7008 L 2741 7004 L 2743 7026 L 2775 7010 L 2756 7052 L 2766 7077 L 2715 7116 L 2712 7138 L 2735 7176 L 2777 7196 L 2790 7172 L 2852 7227 L 2845 7245 L 2865 7256 L 2891 7239 L 2909 7275 L 2942 7277 L 2955 7263 L 2993 7262 L 3000 7251 L 3000 7251 M 3402 8164 L 3424 8178 L 3402 8184 L 3408 8207 L 3438 8184 L 3434 8208 L 3465 8205 L 3472 8188 L 3493 8194 L 3495 8218 L 3542 8224 L 3532 8211 L 3534 8167 L 3508 8162 L 3455 8179 L 3441 8153 L 3466 8139 L 3446 8123 L 3469 8112 L 3460 8085 L 3439 8113 L 3446 8142 L 3430 8163 L 3402 8164 L 3402 8164 M 3733 8197 L 3734 8206 L 3742 8221 L 3769 8214 L 3733 8197 L 3733 8197 L 3733 8197 L 3733 8197 Z" stroke="#cccccc" stroke-width="inherit" opacity="1" class="highcharts-point highcharts-name-arkhangel'sk highcharts-key-ru-ar"></path><path fill="rgb(213,108,112)" d="M 9192 8027 L 9207 8053 L 9227 8045 L 9277 8069 L 9296 8065 L 9271 8044 L 9212 8025 L 9197 8007 L 9192 8027 L 9192 8027 M 8648 8034 L 8641 8054 L 8673 8059 L 8693 8045 L 8689 8010 L 8712 7954 L 8673 7980 L 8648 8034 L 8648 8034 M 8419 8839 L 8413 8817 L 8438 8791 L 8422 8774 L 8448 8766 L 8492 8701 L 8485 8683 L 8533 8648 L 8536 8616 L 8565 8582 L 8567 8554 L 8597 8526 L 8638 8511 L 8619 8480 L 8569 8470 L 8540 8441 L 8522 8358 L 8539 8274 L 8588 8210 L 8591 8189 L 8507 8232 L 8504 8206 L 8524 8176 L 8538 8127 L 8552 8129 L 8571 8092 L 8521 8081 L 8535 8052 L 8512 8017 L 8533 8016 L 8538 7989 L 8563 7983 L 8574 7962 L 8608 7963 L 8605 7945 L 8634 7951 L 8671 7870 L 8737 7814 L 8759 7810 L 8794 7840 L 8770 7864 L 8819 7901 L 8847 7871 L 8851 7849 L 8933 7820 L 8946 7854 L 9024 7843 L 9040 7810 L 9001 7786 L 8980 7816 L 8967 7800 L 8975 7773 L 8993 7784 L 9000 7742 L 9059 7690 L 9089 7677 L 9132 7675 L 9170 7688 L 9203 7638 L 9194 7602 L 9175 7593 L 9171 7556 L 9197 7482 L 9218 7460 L 9273 7432 L 9337 7432 L 9303 7402 L 9306 7339 L 9317 7300 L 9367 7262 L 9379 7268 L 9424 7222 L 9459 7153 L 9503 7026 L 9464 7043 L 9445 7031 L 9325 7073 L 9222 7085 L 9098 7123 L 9020 7137 L 8906 7172 L 8815 7226 L 8735 7295 L 8720 7359 L 8682 7404 L 8631 7408 L 8626 7426 L 8648 7459 L 8627 7490 L 8642 7513 L 8615 7606 L 8573 7681 L 8543 7704 L 8528 7746 L 8505 7769 L 8506 7794 L 8462 7867 L 8453 7899 L 8425 7911 L 8413 7978 L 8401 7992 L 8398 8061 L 8381 8045 L 8345 8096 L 8331 8081 L 8300 8110 L 8223 8138 L 8205 8173 L 8225 8217 L 8176 8185 L 8171 8091 L 8199 8090 L 8207 8067 L 8231 8067 L 8261 8042 L 8283 8063 L 8302 8035 L 8271 8026 L 8272 8004 L 8230 8002 L 8212 8024 L 8192 8005 L 8190 8046 L 8133 8059 L 8099 8043 L 8077 8050 L 8071 8084 L 8042 8088 L 8016 8117 L 7982 8110 L 7971 8128 L 7941 8128 L 7943 8153 L 7921 8179 L 7893 8168 L 7863 8175 L 7848 8204 L 7862 8246 L 7907 8286 L 7887 8292 L 7909 8330 L 7939 8334 L 7937 8357 L 7957 8392 L 7950 8422 L 7996 8443 L 8010 8492 L 8056 8508 L 8072 8536 L 8117 8544 L 8130 8516 L 8179 8455 L 8205 8496 L 8258 8536 L 8314 8556 L 8326 8595 L 8313 8623 L 8324 8642 L 8308 8683 L 8319 8700 L 8328 8759 L 8311 8784 L 8328 8822 L 8381 8819 L 8396 8842 L 8419 8839 L 8419 8839 Z" stroke="#cccccc" stroke-width="inherit" opacity="1" class="highcharts-point highcharts-name-kamchatka highcharts-key-ru-ka"></path><path fill="rgb(218,107,109)" d="M 1211 6123 L 1210 6123 L 1211 6130 L 1214 6129 L 1211 6123 L 1211 6123 M 1400 6028 L 1374 6007 L 1373 5947 L 1360 5930 L 1341 5945 L 1300 5933 L 1269 5948 L 1208 5913 L 1154 5958 L 1124 5996 L 1104 5976 L 1036 5973 L 999 6002 L 999 6022 L 968 6025 L 944 6052 L 970 6073 L 923 6103 L 912 6154 L 877 6132 L 839 6151 L 799 6183 L 834 6207 L 836 6197 L 875 6231 L 952 6238 L 962 6273 L 992 6269 L 1024 6283 L 1062 6274 L 1075 6259 L 1110 6285 L 1104 6266 L 1127 6241 L 1122 6219 L 1171 6191 L 1205 6128 L 1234 6092 L 1246 6093 L 1292 6048 L 1332 6041 L 1362 6067 L 1400 6028 L 1400 6028 Z" stroke="#cccccc" stroke-width="inherit" opacity="1" class="highcharts-point highcharts-name-kostroma highcharts-key-ru-kt"></path><path fill="rgb(215,101,103)" d="M 653 5820 L 651 5823 L 654 5829 L 657 5827 L 653 5820 L 653 5820 M 367 5849 L 369 5901 L 315 5922 L 317 5958 L 354 5994 L 378 6032 L 410 6030 L 425 6053 L 450 6029 L 486 6038 L 536 6023 L 531 6038 L 578 6022 L 597 6003 L 590 5985 L 615 5967 L 628 5925 L 648 5901 L 653 5860 L 675 5848 L 662 5833 L 646 5824 L 647 5791 L 621 5777 L 586 5787 L 599 5760 L 570 5771 L 569 5749 L 548 5748 L 540 5753 L 534 5757 L 487 5804 L 461 5786 L 437 5787 L 422 5833 L 378 5837 L 367 5849 L 367 5849 Z" stroke="#cccccc" stroke-width="inherit" opacity="1" class="highcharts-point highcharts-name-ryazan' highcharts-key-ru-rz"></path><path fill="rgb(214,98,100)" d="M 1167 5083 L 1164 5088 L 1169 5091 L 1171 5086 L 1167 5083 L 1167 5083 M 1114 5334 L 1132 5313 L 1127 5289 L 1148 5289 L 1156 5268 L 1179 5284 L 1217 5278 L 1243 5231 L 1237 5206 L 1276 5195 L 1272 5182 L 1249 5191 L 1233 5166 L 1240 5149 L 1191 5119 L 1166 5112 L 1163 5092 L 1122 5058 L 1083 5061 L 1070 5041 L 1057 5053 L 1038 5027 L 1019 5026 L 998 4999 L 921 5001 L 931 5019 L 913 5073 L 889 5104 L 891 5134 L 874 5174 L 843 5184 L 850 5219 L 828 5244 L 845 5250 L 868 5255 L 850 5285 L 861 5301 L 865 5341 L 882 5345 L 904 5325 L 939 5349 L 960 5320 L 983 5325 L 1019 5287 L 1054 5265 L 1107 5301 L 1114 5334 L 1114 5334 Z" stroke="#cccccc" stroke-width="inherit" opacity="1" class="highcharts-point highcharts-name-samara highcharts-key-ru-sa"></path><path fill="rgb(213,94,97)" d="M 1019 5498 L 1025 5501 L 1027 5498 L 1021 5497 L 1019 5498 L 1019 5498 M 782 5538 L 815 5542 L 873 5513 L 874 5544 L 897 5574 L 912 5534 L 940 5516 L 934 5488 L 978 5491 L 1014 5460 L 1016 5439 L 1041 5420 L 1094 5418 L 1086 5365 L 1114 5334 L 1107 5301 L 1054 5265 L 1019 5287 L 983 5325 L 960 5320 L 939 5349 L 904 5325 L 882 5345 L 865 5341 L 861 5301 L 850 5285 L 868 5255 L 845 5250 L 790 5280 L 776 5275 L 730 5314 L 719 5334 L 744 5340 L 792 5401 L 781 5445 L 800 5502 L 782 5538 L 782 5538 Z" stroke="#cccccc" stroke-width="inherit" opacity="1" class="highcharts-point highcharts-name-ul'yanovsk highcharts-key-ru-ul"></path><path fill="rgb(211,91,94)" d="M 2770 4626 L 2767 4628 L 2772 4632 L 2774 4632 L 2770 4626 L 2770 4626 M 2765 4620 L 2761 4622 L 2765 4623 L 2767 4621 L 2765 4620 L 2765 4620 M 3106 4253 L 3037 4227 L 3016 4236 L 2982 4225 L 2971 4198 L 2936 4231 L 2883 4217 L 2875 4252 L 2912 4284 L 2873 4299 L 2870 4320 L 2842 4331 L 2818 4305 L 2816 4368 L 2796 4348 L 2773 4369 L 2764 4356 L 2734 4376 L 2718 4367 L 2710 4402 L 2728 4395 L 2745 4449 L 2733 4460 L 2744 4500 L 2741 4533 L 2712 4542 L 2718 4559 L 2749 4574 L 2740 4616 L 2774 4620 L 2783 4666 L 2814 4689 L 2823 4711 L 2865 4702 L 2881 4725 L 2865 4751 L 2855 4795 L 2821 4785 L 2808 4821 L 2831 4828 L 2825 4871 L 2833 4890 L 2893 4958 L 2919 4927 L 2901 4888 L 2959 4875 L 2967 4858 L 3021 4839 L 3044 4852 L 3129 4825 L 3214 4867 L 3225 4845 L 3204 4836 L 3197 4803 L 3225 4771 L 3219 4734 L 3246 4666 L 3243 4592 L 3199 4563 L 3217 4563 L 3228 4519 L 3182 4524 L 3112 4487 L 3121 4447 L 3099 4436 L 3134 4315 L 3121 4310 L 3106 4253 L 3106 4253 Z" stroke="#cccccc" stroke-width="inherit" opacity="1" class="highcharts-point highcharts-name-omsk highcharts-key-ru-om"></path><path fill="rgb(210,88,90)" d="M 3265 4104 L 3173 4215 L 3166 4243 L 3191 4235 L 3218 4275 L 3106 4253 L 3121 4310 L 3134 4315 L 3099 4436 L 3121 4447 L 3112 4487 L 3182 4524 L 3228 4519 L 3217 4563 L 3199 4563 L 3243 4592 L 3246 4666 L 3309 4643 L 3431 4612 L 3430 4607 L 3518 4562 L 3565 4485 L 3634 4487 L 3665 4443 L 3732 4447 L 3798 4466 L 3810 4452 L 3791 4423 L 3814 4372 L 3796 4353 L 3831 4344 L 3862 4383 L 3901 4384 L 3911 4383 L 3909 4340 L 3932 4290 L 3928 4234 L 3943 4217 L 3930 4198 L 3939 4162 L 3903 4146 L 3879 4121 L 3863 4133 L 3799 4127 L 3781 4105 L 3765 4123 L 3720 4090 L 3692 4049 L 3639 4090 L 3645 4126 L 3617 4125 L 3613 4145 L 3582 4160 L 3571 4196 L 3543 4174 L 3467 4149 L 3423 4123 L 3374 4131 L 3346 4115 L 3313 4118 L 3312 4133 L 3265 4104 L 3265 4104 Z" stroke="#cccccc" stroke-width="inherit" opacity="1" class="highcharts-point highcharts-name-novosibirsk highcharts-key-ru-ns"></path><path fill="rgb(208,85,87)" d="M 1536 7384 L 1548 7377 L 1537 7377 L 1536 7383 L 1536 7384 L 1536 7384 M 1429 7574 L 1467 7613 L 1554 7608 L 1579 7617 L 1608 7679 L 1607 7718 L 1640 7750 L 1689 7755 L 1689 7776 L 1736 7754 L 1758 7761 L 1785 7739 L 1826 7742 L 1829 7711 L 1863 7732 L 1865 7696 L 1892 7678 L 1914 7691 L 1907 7622 L 1891 7626 L 1880 7662 L 1873 7635 L 1884 7609 L 1864 7610 L 1891 7586 L 1896 7551 L 1934 7460 L 1936 7347 L 1921 7284 L 1930 7279 L 1927 7212 L 1938 7186 L 1940 7113 L 1896 7068 L 1879 7034 L 1851 7023 L 1779 7018 L 1707 7044 L 1668 7074 L 1648 7107 L 1633 7173 L 1617 7197 L 1595 7257 L 1598 7301 L 1578 7314 L 1586 7338 L 1568 7375 L 1577 7425 L 1590 7436 L 1577 7465 L 1547 7408 L 1554 7387 L 1532 7393 L 1521 7408 L 1487 7404 L 1473 7425 L 1498 7465 L 1487 7491 L 1429 7574 L 1429 7574 Z" stroke="#cccccc" stroke-width="inherit" opacity="1" class="highcharts-point highcharts-name-murmansk highcharts-key-ru-mm"></path><path fill="rgb(207,82,84)" d="M 427 7156 L 471 7161 L 460 7143 L 488 7141 L 499 7169 L 539 7187 L 535 7157 L 564 7161 L 577 7128 L 605 7128 L 618 7089 L 598 7028 L 638 7008 L 639 7030 L 665 7056 L 655 7115 L 635 7122 L 623 7151 L 636 7175 L 626 7188 L 648 7213 L 647 7190 L 678 7209 L 638 7227 L 625 7254 L 726 7226 L 769 7210 L 763 7182 L 774 7164 L 818 6948 L 844 6932 L 890 6930 L 895 6906 L 915 6909 L 906 6939 L 919 6941 L 966 6885 L 998 6835 L 1000 6815 L 956 6798 L 932 6808 L 917 6787 L 844 6750 L 853 6728 L 820 6696 L 792 6681 L 723 6700 L 696 6764 L 702 6799 L 684 6839 L 640 6844 L 631 6866 L 646 6890 L 621 6925 L 601 6914 L 562 6917 L 569 6931 L 511 6938 L 492 6975 L 464 6959 L 446 6965 L 433 6998 L 444 7012 L 452 7062 L 431 7111 L 442 7129 L 427 7156 L 427 7156 Z" stroke="#cccccc" stroke-width="inherit" opacity="1" class="highcharts-point highcharts-name-leningrad highcharts-key-ru-ln"></path><path fill="rgb(206,79,81)" d="M 635 7122 L 655 7115 L 665 7056 L 639 7030 L 638 7008 L 598 7028 L 618 7089 L 624 7056 L 644 7059 L 650 7094 L 635 7122 L 635 7122 Z" stroke="#cccccc" stroke-width="inherit" opacity="1" class="highcharts-point highcharts-name-city-of-st.-petersburg highcharts-key-ru-sp"></path><path fill="rgb(204,76,78)" d="M 1532 7393 L 1531 7391 L 1536 7384 L 1536 7383 L 1537 7377 L 1541 7341 L 1523 7335 L 1529 7276 L 1516 7241 L 1495 7223 L 1440 7219 L 1420 7180 L 1463 7137 L 1440 7118 L 1446 7142 L 1415 7173 L 1371 7130 L 1357 7136 L 1349 7080 L 1370 7060 L 1356 6995 L 1313 6976 L 1285 6996 L 1280 6965 L 1238 6931 L 1224 6900 L 1229 6854 L 1245 6830 L 1216 6801 L 1188 6748 L 1131 6718 L 1107 6744 L 1106 6768 L 1081 6787 L 1062 6783 L 1000 6815 L 998 6835 L 966 6885 L 919 6941 L 906 6939 L 915 6909 L 895 6906 L 890 6930 L 844 6932 L 818 6948 L 774 7164 L 763 7182 L 769 7210 L 822 7198 L 925 7188 L 985 7175 L 1045 7185 L 1068 7227 L 1075 7289 L 1092 7338 L 1140 7325 L 1170 7339 L 1174 7381 L 1223 7407 L 1215 7423 L 1233 7448 L 1267 7449 L 1316 7486 L 1331 7467 L 1381 7510 L 1429 7574 L 1487 7491 L 1498 7465 L 1473 7425 L 1487 7404 L 1521 7408 L 1532 7393 L 1532 7393 Z" stroke="#cccccc" stroke-width="inherit" opacity="1" class="highcharts-point highcharts-name-karelia highcharts-key-ru-ki"></path><path fill="rgb(203,73,75)" d="M -512 4775 L -539 4795 L -576 4844 L -578 4868 L -602 4904 L -611 4944 L -563 4972 L -545 4962 L -532 4980 L -507 4920 L -480 4916 L -439 4938 L -398 4849 L -429 4860 L -438 4840 L -415 4827 L -431 4799 L -467 4801 L -512 4775 L -512 4775 Z" stroke="#cccccc" stroke-width="inherit" opacity="1" class="highcharts-point highcharts-name-karachay-cherkess highcharts-key-ru-kc"></path><path fill="rgb(202,69,72)" d="M -347 4497 L -358 4522 L -378 4515 L -378 4538 L -365 4552 L -351 4529 L -324 4546 L -328 4610 L -309 4625 L -282 4601 L -274 4575 L -329 4499 L -347 4497 L -347 4497 Z" stroke="#cccccc" stroke-width="inherit" opacity="1" class="highcharts-point highcharts-name-ingush highcharts-key-ru-in"></path><path fill="rgb(200,66,69)" d="M -465 4656 L -478 4681 L -475 4708 L -503 4746 L -512 4775 L -467 4801 L -431 4799 L -379 4771 L -381 4745 L -346 4715 L -317 4715 L -296 4680 L -304 4668 L -308 4640 L -328 4629 L -367 4646 L -383 4633 L -388 4657 L -446 4646 L -465 4656 L -465 4656 Z" stroke="#cccccc" stroke-width="inherit" opacity="1" class="highcharts-point highcharts-name-kabardin-balkar highcharts-key-ru-kb"></path><path fill="rgb(199,63,66)" d="M -282 4601 L -309 4625 L -328 4610 L -324 4546 L -351 4529 L -365 4552 L -378 4538 L -411 4565 L -453 4579 L -464 4599 L -445 4609 L -465 4656 L -446 4646 L -388 4657 L -383 4633 L -367 4646 L -328 4629 L -308 4640 L -304 4668 L -264 4624 L -275 4608 L -282 4601 L -282 4601 Z" stroke="#cccccc" stroke-width="inherit" opacity="1" class="highcharts-point highcharts-name-north-ossetia highcharts-key-ru-no"></path><path fill="rgb(198,60,63)" d="M -275 4608 L -264 4624 L -304 4668 L -296 4680 L -317 4715 L -346 4715 L -381 4745 L -379 4771 L -431 4799 L -415 4827 L -438 4840 L -429 4860 L -398 4849 L -439 4938 L -437 4986 L -394 4992 L -406 5006 L -391 5036 L -415 5064 L -396 5108 L -378 5119 L -343 5091 L -331 5117 L -309 5101 L -287 5076 L -259 5037 L -226 5010 L -175 5003 L -161 4943 L -131 4898 L -139 4850 L -130 4817 L -110 4792 L -74 4691 L -81 4664 L -108 4651 L -152 4661 L -167 4625 L -201 4636 L -171 4604 L -187 4587 L -204 4580 L -227 4616 L -243 4600 L -275 4608 L -275 4608 Z" stroke="#cccccc" stroke-width="inherit" opacity="1" class="highcharts-point highcharts-name-stavropol' highcharts-key-ru-st"></path><path fill="rgb(196,57,59)" d="M 141 6697 L 170 6700 L 184 6666 L 208 6638 L 202 6619 L 221 6602 L 240 6552 L 268 6526 L 315 6513 L 337 6516 L 350 6496 L 353 6454 L 383 6418 L 373 6392 L 316 6357 L 313 6348 L 237 6343 L 200 6362 L 168 6359 L 171 6384 L 154 6413 L 80 6388 L 59 6403 L 47 6390 L -27 6404 L -26 6433 L -7 6444 L -14 6480 L -32 6505 L 3 6519 L 0 6569 L 39 6609 L 40 6651 L 79 6650 L 101 6684 L 141 6697 L 141 6697 Z" stroke="#cccccc" stroke-width="inherit" opacity="1" class="highcharts-point highcharts-name-smolensk highcharts-key-ru-sm"></path><path fill="rgb(195,54,56)" d="M 184 6666 L 170 6700 L 141 6697 L 144 6767 L 126 6791 L 91 6812 L 120 6836 L 114 6867 L 94 6877 L 105 6901 L 87 6924 L 140 6967 L 168 7015 L 159 7025 L 222 7038 L 233 7089 L 275 7094 L 296 7066 L 322 7062 L 335 7088 L 318 7109 L 326 7123 L 366 7119 L 427 7156 L 442 7129 L 431 7111 L 452 7062 L 444 7012 L 433 6998 L 446 6965 L 409 6973 L 390 6960 L 384 6932 L 401 6888 L 372 6863 L 332 6849 L 296 6813 L 310 6789 L 282 6792 L 273 6759 L 253 6752 L 253 6706 L 221 6686 L 206 6692 L 184 6666 L 184 6666 Z" stroke="#cccccc" stroke-width="inherit" opacity="1" class="highcharts-point highcharts-name-pskov highcharts-key-ru-ps"></path><path fill="rgb(193,51,53)" d="M 184 6666 L 206 6692 L 221 6686 L 253 6706 L 253 6752 L 273 6759 L 282 6792 L 310 6789 L 331 6749 L 358 6748 L 404 6710 L 447 6700 L 466 6664 L 493 6679 L 541 6674 L 549 6695 L 589 6678 L 606 6621 L 627 6628 L 633 6608 L 665 6608 L 701 6567 L 723 6561 L 738 6542 L 791 6544 L 806 6530 L 788 6466 L 744 6458 L 745 6429 L 718 6439 L 700 6408 L 703 6380 L 679 6365 L 696 6329 L 671 6323 L 630 6278 L 618 6295 L 623 6328 L 593 6329 L 568 6350 L 541 6336 L 537 6357 L 474 6387 L 454 6439 L 383 6418 L 353 6454 L 350 6496 L 337 6516 L 315 6513 L 268 6526 L 240 6552 L 221 6602 L 202 6619 L 208 6638 L 184 6666 L 184 6666 Z" stroke="#cccccc" stroke-width="inherit" opacity="1" class="highcharts-point highcharts-name-tver' highcharts-key-ru-tv"></path><path fill="rgb(192,47,50)" d="M 788 6466 L 806 6530 L 791 6544 L 738 6542 L 723 6561 L 735 6565 L 737 6613 L 708 6652 L 722 6657 L 723 6700 L 792 6681 L 820 6696 L 853 6728 L 844 6750 L 917 6787 L 932 6808 L 956 6798 L 1000 6815 L 1062 6783 L 1081 6787 L 1106 6768 L 1107 6744 L 1131 6718 L 1098 6675 L 1092 6659 L 1092 6658 L 1091 6654 L 1090 6655 L 1085 6641 L 1082 6597 L 1105 6588 L 1110 6555 L 1131 6543 L 1134 6519 L 1187 6485 L 1202 6439 L 1225 6456 L 1251 6438 L 1266 6393 L 1289 6388 L 1296 6355 L 1322 6333 L 1361 6344 L 1387 6330 L 1378 6316 L 1424 6256 L 1457 6280 L 1477 6259 L 1467 6244 L 1485 6209 L 1506 6208 L 1515 6159 L 1442 6113 L 1416 6134 L 1415 6101 L 1442 6082 L 1411 6062 L 1400 6028 L 1362 6067 L 1332 6041 L 1292 6048 L 1246 6093 L 1234 6092 L 1205 6128 L 1171 6191 L 1122 6219 L 1127 6241 L 1104 6266 L 1110 6285 L 1075 6259 L 1062 6274 L 1024 6283 L 992 6269 L 962 6273 L 921 6317 L 933 6346 L 930 6382 L 902 6425 L 879 6409 L 835 6461 L 788 6466 L 788 6466 M 1211 6123 L 1214 6129 L 1211 6130 L 1210 6123 L 1211 6123 L 1211 6123 Z" stroke="#cccccc" stroke-width="inherit" opacity="1" class="highcharts-point highcharts-name-vologda highcharts-key-ru-vo"></path><path fill="rgb(191,44,47)" d="M 691 6203 L 724 6219 L 757 6212 L 799 6183 L 839 6151 L 877 6132 L 912 6154 L 923 6103 L 970 6073 L 944 6052 L 968 6025 L 999 6022 L 999 6002 L 997 5985 L 969 5993 L 955 5965 L 929 5962 L 884 5992 L 850 5958 L 828 5971 L 816 5994 L 793 5999 L 801 6021 L 747 6074 L 731 6118 L 694 6126 L 696 6163 L 715 6176 L 691 6203 L 691 6203 Z" stroke="#cccccc" stroke-width="inherit" opacity="1" class="highcharts-point highcharts-name-ivanovo highcharts-key-ru-iv"></path><path fill="rgb(189,41,44)" d="M 799 6183 L 757 6212 L 724 6219 L 691 6203 L 658 6192 L 642 6225 L 621 6238 L 628 6264 L 627 6270 L 630 6278 L 671 6323 L 696 6329 L 679 6365 L 703 6380 L 700 6408 L 718 6439 L 745 6429 L 744 6458 L 788 6466 L 835 6461 L 879 6409 L 902 6425 L 930 6382 L 933 6346 L 921 6317 L 962 6273 L 952 6238 L 875 6231 L 836 6197 L 834 6207 L 799 6183 L 799 6183 Z" stroke="#cccccc" stroke-width="inherit" opacity="1" class="highcharts-point highcharts-name-yaroslavl' highcharts-key-ru-ys"></path><path fill="rgb(188,38,41)" d="M 390 6239 L 385 6215 L 375 6204 L 370 6192 L 365 6182 L 322 6170 L 316 6195 L 301 6165 L 285 6161 L 262 6193 L 232 6214 L 225 6192 L 185 6197 L 164 6171 L 114 6198 L 92 6192 L 81 6213 L 86 6226 L 63 6268 L 84 6278 L 100 6327 L 82 6351 L 80 6388 L 154 6413 L 171 6384 L 168 6359 L 200 6362 L 237 6343 L 313 6348 L 328 6338 L 352 6283 L 375 6280 L 390 6239 L 390 6239 Z" stroke="#cccccc" stroke-width="inherit" opacity="1" class="highcharts-point highcharts-name-kaluga highcharts-key-ru-kg"></path><path fill="rgb(187,35,38)" d="M 80 6388 L 82 6351 L 100 6327 L 84 6278 L 63 6268 L 86 6226 L 81 6213 L 63 6201 L 65 6178 L 15 6201 L 11 6166 L -38 6153 L -82 6148 L -115 6164 L -126 6153 L -126 6185 L -103 6205 L -96 6238 L -117 6255 L -125 6287 L -153 6299 L -174 6350 L -208 6342 L -230 6366 L -214 6412 L -154 6456 L -147 6488 L -117 6488 L -102 6462 L -99 6427 L -70 6410 L -27 6404 L 47 6390 L 59 6403 L 80 6388 L 80 6388 Z" stroke="#cccccc" stroke-width="inherit" opacity="1" class="highcharts-point highcharts-name-bryansk highcharts-key-ru-br"></path><path fill="rgb(185,32,35)" d="M -173 6014 L -158 6046 L -180 6072 L -201 6123 L -181 6123 L -155 6161 L -126 6153 L -115 6164 L -82 6148 L -38 6153 L 7 6107 L -10 6090 L 43 6043 L 42 5988 L 56 5958 L 53 5932 L 84 5910 L 84 5879 L 110 5864 L 88 5832 L 64 5847 L 38 5807 L 24 5853 L -24 5899 L -36 5892 L -84 5918 L -112 5975 L -146 5970 L -173 6014 L -173 6014 Z" stroke="#cccccc" stroke-width="inherit" opacity="1" class="highcharts-point highcharts-name-kursk highcharts-key-ru-ks"></path><path fill="rgb(184,29,32)" d="M 110 5864 L 84 5879 L 84 5910 L 102 5919 L 137 5915 L 147 5962 L 176 5966 L 197 5986 L 208 5986 L 220 5946 L 245 5935 L 266 5966 L 290 5952 L 317 5958 L 315 5922 L 369 5901 L 367 5849 L 306 5807 L 282 5803 L 279 5754 L 287 5716 L 242 5701 L 183 5776 L 177 5810 L 156 5816 L 149 5846 L 110 5864 L 110 5864 Z" stroke="#cccccc" stroke-width="inherit" opacity="1" class="highcharts-point highcharts-name-lipetsk highcharts-key-ru-lp"></path><path fill="rgb(182,26,28)" d="M 452 6263 L 445 6271 L 451 6274 L 459 6263 L 452 6263 L 452 6263 M 496 6276 L 489 6276 L 489 6284 L 498 6288 L 496 6276 L 496 6276 M 375 6204 L 385 6215 L 390 6239 L 422 6262 L 429 6239 L 464 6240 L 489 6257 L 504 6229 L 413 6199 L 375 6204 L 375 6204 Z" stroke="#cccccc" stroke-width="inherit" opacity="1" class="highcharts-point highcharts-name-moskva highcharts-key-ru-ms"></path><path fill="rgb(181,22,25)" d="M -38 6153 L 11 6166 L 15 6201 L 65 6178 L 63 6201 L 81 6213 L 92 6192 L 114 6198 L 164 6171 L 171 6086 L 188 6053 L 213 6030 L 199 6020 L 197 5986 L 176 5966 L 147 5962 L 137 5915 L 102 5919 L 84 5910 L 53 5932 L 56 5958 L 42 5988 L 43 6043 L -10 6090 L 7 6107 L -38 6153 L -38 6153 Z" stroke="#cccccc" stroke-width="inherit" opacity="1" class="highcharts-point highcharts-name-orel highcharts-key-ru-ol"></path><path fill="rgb(180,19,22)" d="M 662 5833 L 675 5848 L 653 5860 L 648 5901 L 698 5907 L 713 5930 L 750 5924 L 803 5937 L 819 5926 L 828 5971 L 850 5958 L 884 5992 L 929 5962 L 955 5965 L 969 5993 L 997 5985 L 999 6002 L 1036 5973 L 1104 5976 L 1124 5996 L 1154 5958 L 1208 5913 L 1208 5902 L 1263 5852 L 1277 5826 L 1223 5795 L 1179 5833 L 1124 5780 L 1069 5813 L 1046 5793 L 1024 5803 L 1012 5790 L 1026 5770 L 1005 5757 L 1006 5716 L 953 5697 L 960 5647 L 917 5638 L 899 5625 L 881 5642 L 890 5659 L 859 5661 L 844 5647 L 803 5655 L 791 5629 L 753 5658 L 739 5707 L 745 5731 L 724 5783 L 693 5786 L 664 5815 L 662 5833 L 662 5833 Z" stroke="#cccccc" stroke-width="inherit" opacity="1" class="highcharts-point highcharts-name-nizhegorod highcharts-key-ru-nz"></path><path fill="rgb(178,16,19)" d="M 534 5757 L 540 5753 L 548 5748 L 550 5725 L 574 5716 L 598 5691 L 617 5705 L 649 5664 L 641 5641 L 669 5585 L 686 5577 L 696 5601 L 740 5574 L 742 5555 L 782 5538 L 800 5502 L 781 5445 L 792 5401 L 744 5340 L 719 5334 L 687 5374 L 641 5368 L 618 5405 L 586 5424 L 570 5422 L 560 5476 L 524 5467 L 496 5519 L 450 5561 L 455 5576 L 486 5575 L 504 5734 L 534 5757 L 534 5757 Z" stroke="#cccccc" stroke-width="inherit" opacity="1" class="highcharts-point highcharts-name-penza highcharts-key-ru-pz"></path><path fill="rgb(118,133,166)" d="M 628 6264 L 621 6238 L 642 6225 L 658 6192 L 691 6203 L 715 6176 L 696 6163 L 694 6126 L 731 6118 L 747 6074 L 801 6021 L 793 5999 L 816 5994 L 828 5971 L 819 5926 L 803 5937 L 750 5924 L 713 5930 L 698 5907 L 648 5901 L 628 5925 L 615 5967 L 590 5985 L 597 6003 L 578 6022 L 603 6057 L 612 6094 L 579 6118 L 578 6155 L 560 6185 L 603 6250 L 628 6264 L 628 6264 Z" stroke="#cccccc" stroke-width="inherit" opacity="1" class="highcharts-point highcharts-name-vladimir highcharts-key-ru-vl"></path><path fill="rgb(177,13,16)" d="M -29 5521 L -54 5541 L -50 5576 L -65 5594 L -60 5617 L -36 5629 L -11 5681 L 15 5692 L 10 5732 L 32 5731 L 41 5755 L 21 5781 L 38 5807 L 64 5847 L 88 5832 L 110 5864 L 149 5846 L 156 5816 L 177 5810 L 183 5776 L 242 5701 L 263 5664 L 244 5654 L 276 5629 L 318 5543 L 332 5528 L 334 5481 L 319 5466 L 269 5501 L 249 5535 L 224 5529 L 163 5548 L 167 5505 L 118 5484 L 101 5472 L 66 5479 L 32 5471 L -1 5491 L -29 5521 L -29 5521 Z" stroke="#cccccc" stroke-width="inherit" opacity="1" class="highcharts-point highcharts-name-voronezh highcharts-key-ru-vr"></path><path fill="rgb(177,13,16)" d="M 2295 5721 L 2307 5742 L 2325 5753 L 2349 5725 L 2341 5700 L 2407 5656 L 2461 5567 L 2470 5514 L 2454 5500 L 2449 5414 L 2464 5384 L 2456 5331 L 2438 5291 L 2511 5234 L 2519 5126 L 2535 5112 L 2522 5069 L 2521 5029 L 2399 5024 L 2375 4943 L 2373 4904 L 2359 4909 L 2351 4924 L 2309 4930 L 2279 4901 L 2231 4948 L 2163 4964 L 2164 4976 L 2111 4958 L 2100 4939 L 2080 4979 L 2039 5003 L 2037 4987 L 1969 5023 L 1936 5058 L 1895 5084 L 1878 5071 L 1850 5070 L 1762 5137 L 1773 5161 L 1796 5205 L 1799 5231 L 1826 5220 L 1873 5217 L 1903 5279 L 1927 5288 L 1949 5259 L 1976 5265 L 1980 5306 L 2074 5331 L 2084 5359 L 2068 5379 L 2101 5421 L 2068 5494 L 2094 5517 L 2149 5533 L 2217 5585 L 2239 5610 L 2256 5668 L 2287 5696 L 2295 5721 L 2295 5721 Z" stroke="#cccccc" stroke-width="inherit" opacity="1" class="highcharts-point highcharts-name-sverdlovsk highcharts-key-ru-sv"></path><path fill="rgb(177,13,16)" d="M 1476 5294 L 1517 5291 L 1562 5309 L 1591 5320 L 1602 5275 L 1636 5254 L 1679 5247 L 1676 5219 L 1707 5215 L 1718 5161 L 1742 5153 L 1773 5161 L 1762 5137 L 1850 5070 L 1878 5071 L 1895 5054 L 1861 5019 L 1870 4967 L 1839 4977 L 1828 4965 L 1792 4976 L 1780 4944 L 1760 4944 L 1751 4985 L 1710 4972 L 1740 5009 L 1707 5040 L 1661 5030 L 1642 4996 L 1662 4960 L 1673 4908 L 1712 4908 L 1725 4888 L 1771 4886 L 1782 4876 L 1834 4894 L 1852 4865 L 1808 4842 L 1800 4806 L 1784 4798 L 1761 4820 L 1733 4806 L 1710 4809 L 1651 4728 L 1647 4708 L 1603 4667 L 1596 4637 L 1596 4616 L 1560 4618 L 1558 4599 L 1524 4574 L 1491 4591 L 1460 4629 L 1401 4620 L 1398 4647 L 1374 4677 L 1390 4681 L 1391 4723 L 1369 4742 L 1398 4742 L 1406 4769 L 1397 4799 L 1349 4782 L 1334 4804 L 1358 4857 L 1339 4868 L 1349 4936 L 1307 4991 L 1301 5053 L 1311 5095 L 1328 5135 L 1377 5164 L 1379 5235 L 1416 5219 L 1451 5222 L 1499 5240 L 1496 5269 L 1476 5294 L 1476 5294 Z" stroke="#cccccc" stroke-width="inherit" opacity="1" class="highcharts-point highcharts-name-bashkortostan highcharts-key-ru-bk"></path><path fill="rgb(177,13,16)" d="M 1562 5309 L 1517 5291 L 1476 5294 L 1448 5306 L 1494 5329 L 1479 5352 L 1471 5330 L 1456 5359 L 1490 5390 L 1433 5388 L 1444 5370 L 1419 5357 L 1395 5387 L 1384 5370 L 1329 5410 L 1362 5424 L 1348 5434 L 1377 5503 L 1390 5495 L 1419 5509 L 1411 5523 L 1425 5572 L 1445 5589 L 1469 5569 L 1505 5576 L 1536 5613 L 1538 5643 L 1583 5661 L 1634 5612 L 1662 5613 L 1662 5587 L 1695 5572 L 1679 5546 L 1678 5507 L 1659 5471 L 1637 5457 L 1644 5435 L 1617 5394 L 1594 5390 L 1578 5369 L 1566 5383 L 1550 5364 L 1569 5357 L 1562 5309 L 1562 5309 Z" stroke="#cccccc" stroke-width="inherit" opacity="1" class="highcharts-point highcharts-name-udmurt highcharts-key-ru-ud"></path><path fill="rgb(177,13,16)" d="M 897 5574 L 874 5544 L 873 5513 L 815 5542 L 782 5538 L 742 5555 L 740 5574 L 696 5601 L 686 5577 L 669 5585 L 641 5641 L 649 5664 L 617 5705 L 598 5691 L 574 5716 L 550 5725 L 548 5748 L 569 5749 L 570 5771 L 599 5760 L 586 5787 L 621 5777 L 647 5791 L 646 5824 L 662 5833 L 664 5815 L 693 5786 L 724 5783 L 745 5731 L 739 5707 L 753 5658 L 791 5629 L 803 5655 L 844 5647 L 859 5661 L 890 5659 L 881 5642 L 899 5625 L 911 5619 L 897 5574 L 897 5574 M 653 5820 L 657 5827 L 654 5829 L 651 5823 L 653 5820 L 653 5820 Z" stroke="#cccccc" stroke-width="inherit" opacity="1" class="highcharts-point highcharts-name-mordovia highcharts-key-ru-mr"></path><path fill="rgb(177,13,16)" d="M 897 5574 L 911 5619 L 899 5625 L 917 5638 L 960 5647 L 953 5697 L 1006 5716 L 1040 5697 L 1079 5692 L 1105 5677 L 1094 5659 L 1117 5625 L 1108 5600 L 1123 5566 L 1079 5568 L 1043 5542 L 1034 5511 L 990 5498 L 973 5526 L 940 5516 L 912 5534 L 897 5574 L 897 5574 Z" stroke="#cccccc" stroke-width="inherit" opacity="1" class="highcharts-point highcharts-name-chuvash highcharts-key-ru-cv"></path><path fill="rgb(177,13,16)" d="M 1878 5071 L 1895 5084 L 1936 5058 L 1969 5023 L 2037 4987 L 2039 5003 L 2080 4979 L 2100 4939 L 2095 4897 L 2106 4887 L 2099 4842 L 2060 4846 L 2041 4835 L 2051 4818 L 2037 4795 L 2022 4808 L 2009 4754 L 2046 4747 L 2041 4734 L 2094 4717 L 2091 4692 L 2063 4674 L 2072 4646 L 2001 4661 L 1921 4692 L 1893 4718 L 1881 4693 L 1853 4680 L 1872 4655 L 1845 4628 L 1903 4572 L 1898 4554 L 1856 4570 L 1849 4584 L 1809 4591 L 1761 4578 L 1769 4522 L 1726 4516 L 1663 4528 L 1661 4546 L 1691 4555 L 1702 4573 L 1677 4599 L 1634 4623 L 1613 4602 L 1596 4637 L 1603 4667 L 1647 4708 L 1651 4728 L 1710 4809 L 1733 4806 L 1761 4820 L 1784 4798 L 1800 4806 L 1808 4842 L 1852 4865 L 1834 4894 L 1782 4876 L 1771 4886 L 1725 4888 L 1712 4908 L 1673 4908 L 1662 4960 L 1642 4996 L 1661 5030 L 1707 5040 L 1740 5009 L 1710 4972 L 1751 4985 L 1760 4944 L 1780 4944 L 1792 4976 L 1828 4965 L 1839 4977 L 1870 4967 L 1861 5019 L 1895 5054 L 1878 5071 L 1878 5071 Z" stroke="#cccccc" stroke-width="inherit" opacity="1" class="highcharts-point highcharts-name-chelyabinsk highcharts-key-ru-cl"></path><path fill="rgb(177,13,16)" d="M 1596 4637 L 1613 4602 L 1634 4623 L 1677 4599 L 1702 4573 L 1691 4555 L 1661 4546 L 1663 4528 L 1686 4482 L 1668 4474 L 1712 4439 L 1711 4420 L 1745 4392 L 1750 4364 L 1731 4359 L 1694 4320 L 1630 4335 L 1596 4359 L 1584 4393 L 1541 4367 L 1516 4373 L 1519 4395 L 1480 4427 L 1463 4466 L 1477 4484 L 1462 4513 L 1441 4511 L 1415 4537 L 1393 4515 L 1364 4532 L 1364 4565 L 1309 4597 L 1270 4597 L 1248 4582 L 1199 4583 L 1181 4618 L 1177 4656 L 1156 4695 L 1126 4646 L 1103 4665 L 1130 4685 L 1115 4715 L 1114 4753 L 1096 4771 L 1104 4791 L 1094 4821 L 1059 4839 L 1027 4867 L 1038 4908 L 995 4926 L 974 4912 L 936 4938 L 954 4951 L 921 5001 L 998 4999 L 1019 5026 L 1038 5027 L 1057 5053 L 1070 5041 L 1083 5061 L 1122 5058 L 1163 5092 L 1166 5112 L 1191 5119 L 1240 5149 L 1233 5166 L 1249 5191 L 1272 5182 L 1303 5138 L 1285 5120 L 1311 5095 L 1301 5053 L 1307 4991 L 1349 4936 L 1339 4868 L 1358 4857 L 1334 4804 L 1349 4782 L 1397 4799 L 1406 4769 L 1398 4742 L 1369 4742 L 1391 4723 L 1390 4681 L 1374 4677 L 1398 4647 L 1401 4620 L 1460 4629 L 1491 4591 L 1524 4574 L 1558 4599 L 1560 4618 L 1596 4616 L 1596 4637 L 1596 4637 M 1167 5083 L 1171 5086 L 1169 5091 L 1164 5088 L 1167 5083 L 1167 5083 Z" stroke="#cccccc" stroke-width="inherit" opacity="1" class="highcharts-point highcharts-name-orenburg highcharts-key-ru-ob"></path><path fill="rgb(177,13,16)" d="M 319 5466 L 334 5481 L 332 5528 L 406 5562 L 450 5561 L 496 5519 L 524 5467 L 560 5476 L 570 5422 L 586 5424 L 618 5405 L 641 5368 L 687 5374 L 719 5334 L 730 5314 L 776 5275 L 790 5280 L 845 5250 L 828 5244 L 850 5219 L 843 5184 L 874 5174 L 891 5134 L 889 5104 L 913 5073 L 931 5019 L 921 5001 L 908 4982 L 896 4999 L 852 4980 L 790 4992 L 764 5015 L 740 4989 L 662 5009 L 642 4982 L 627 4937 L 573 4947 L 565 4964 L 576 5013 L 572 5063 L 553 5069 L 548 5097 L 526 5121 L 520 5159 L 498 5152 L 470 5178 L 478 5211 L 450 5212 L 416 5239 L 449 5263 L 455 5305 L 422 5355 L 395 5364 L 328 5414 L 319 5466 L 319 5466 Z" stroke="#cccccc" stroke-width="inherit" opacity="1" class="highcharts-point highcharts-name-saratov highcharts-key-ru-sr"></path><path fill="rgb(177,13,16)" d="M 1311 5095 L 1285 5120 L 1303 5138 L 1272 5182 L 1276 5195 L 1237 5206 L 1243 5231 L 1217 5278 L 1179 5284 L 1156 5268 L 1148 5289 L 1127 5289 L 1132 5313 L 1114 5334 L 1086 5365 L 1094 5418 L 1041 5420 L 1016 5439 L 1014 5460 L 978 5491 L 934 5488 L 940 5516 L 973 5526 L 990 5498 L 1034 5511 L 1043 5542 L 1079 5568 L 1123 5566 L 1153 5565 L 1220 5586 L 1273 5566 L 1283 5544 L 1301 5558 L 1323 5549 L 1311 5503 L 1331 5492 L 1317 5477 L 1334 5433 L 1348 5434 L 1362 5424 L 1329 5410 L 1384 5370 L 1395 5387 L 1419 5357 L 1444 5370 L 1433 5388 L 1490 5390 L 1456 5359 L 1471 5330 L 1479 5352 L 1494 5329 L 1448 5306 L 1476 5294 L 1496 5269 L 1499 5240 L 1451 5222 L 1416 5219 L 1379 5235 L 1377 5164 L 1328 5135 L 1311 5095 L 1311 5095 M 1019 5498 L 1021 5497 L 1027 5498 L 1025 5501 L 1019 5498 L 1019 5498 Z" stroke="#cccccc" stroke-width="inherit" opacity="1" class="highcharts-point highcharts-name-tatarstan highcharts-key-ru-tt"></path><path fill="rgb(177,13,16)" d="M 3214 4867 L 3220 4871 L 3221 4875 L 3269 4910 L 3277 4945 L 3328 4977 L 3365 4974 L 3401 5063 L 3402 5090 L 3422 5096 L 3441 5139 L 3558 5103 L 3586 5106 L 3595 5080 L 3654 5069 L 3697 5081 L 3724 5054 L 3775 5047 L 3795 5028 L 3818 5052 L 3877 5088 L 3904 5088 L 3936 5053 L 3956 5055 L 3988 4983 L 3964 4930 L 3975 4919 L 4035 4912 L 4071 4918 L 4155 4903 L 4163 4875 L 4189 4867 L 4216 4814 L 4266 4817 L 4284 4779 L 4249 4762 L 4212 4710 L 4228 4651 L 4283 4629 L 4321 4627 L 4325 4583 L 4283 4555 L 4254 4509 L 4270 4507 L 4261 4472 L 4244 4472 L 4189 4435 L 4139 4455 L 4127 4436 L 4100 4451 L 4047 4434 L 4002 4410 L 3901 4384 L 3862 4383 L 3831 4344 L 3796 4353 L 3814 4372 L 3791 4423 L 3810 4452 L 3798 4466 L 3732 4447 L 3665 4443 L 3634 4487 L 3565 4485 L 3518 4562 L 3430 4607 L 3431 4612 L 3309 4643 L 3246 4666 L 3219 4734 L 3225 4771 L 3197 4803 L 3204 4836 L 3225 4845 L 3214 4867 L 3214 4867 Z" stroke="#cccccc" stroke-width="inherit" opacity="1" class="highcharts-point highcharts-name-tomsk highcharts-key-ru-to"></path><path fill="rgb(177,13,16)" d="M 3221 4875 L 3220 4871 L 3214 4867 L 3129 4825 L 3044 4852 L 3021 4839 L 2967 4858 L 2959 4875 L 2901 4888 L 2919 4927 L 2893 4958 L 2833 4890 L 2825 4871 L 2831 4828 L 2808 4821 L 2821 4785 L 2855 4795 L 2865 4751 L 2881 4725 L 2865 4702 L 2823 4711 L 2814 4689 L 2783 4666 L 2774 4620 L 2740 4616 L 2749 4574 L 2718 4559 L 2712 4542 L 2683 4530 L 2649 4572 L 2609 4586 L 2595 4607 L 2574 4603 L 2541 4652 L 2548 4665 L 2491 4694 L 2491 4727 L 2425 4754 L 2418 4774 L 2393 4774 L 2382 4823 L 2344 4843 L 2341 4876 L 2359 4909 L 2373 4904 L 2375 4943 L 2399 5024 L 2521 5029 L 2522 5069 L 2535 5112 L 2566 5094 L 2597 5093 L 2613 5126 L 2634 5116 L 2698 5133 L 2746 5125 L 2773 5154 L 2838 5164 L 2828 5184 L 2849 5191 L 2867 5172 L 2905 5157 L 2918 5140 L 2979 5132 L 2982 5115 L 3022 5067 L 3051 4990 L 3068 4992 L 3069 4949 L 3112 4935 L 3144 4909 L 3193 4897 L 3221 4875 L 3221 4875 M 2770 4626 L 2774 4632 L 2772 4632 L 2767 4628 L 2770 4626 L 2770 4626 M 2765 4620 L 2767 4621 L 2765 4623 L 2761 4622 L 2765 4620 L 2765 4620 Z" stroke="#cccccc" stroke-width="inherit" opacity="1" class="highcharts-point highcharts-name-tyumen' highcharts-key-ru-ty"></path><path fill="rgb(177,13,16)" d="M 4221 3828 L 4198 3819 L 4170 3780 L 4193 3766 L 4171 3745 L 4218 3711 L 4232 3711 L 4254 3743 L 4275 3726 L 4284 3675 L 4315 3646 L 4360 3588 L 4327 3579 L 4339 3516 L 4344 3489 L 4262 3453 L 4238 3461 L 4191 3456 L 4168 3419 L 4111 3408 L 4074 3434 L 4056 3471 L 4033 3483 L 4052 3496 L 4037 3511 L 3990 3469 L 3934 3494 L 3900 3492 L 3877 3561 L 3808 3593 L 3797 3645 L 3842 3649 L 3843 3685 L 3796 3704 L 3835 3728 L 3897 3753 L 3919 3749 L 3950 3778 L 3970 3780 L 3992 3826 L 4039 3816 L 4069 3826 L 4075 3851 L 4058 3863 L 4082 3900 L 4112 3893 L 4154 3869 L 4181 3881 L 4207 3862 L 4227 3867 L 4221 3828 L 4221 3828 Z" stroke="#cccccc" stroke-width="inherit" opacity="1" class="highcharts-point highcharts-name-gorno-altay highcharts-key-ru-ga"></path><path fill="rgb(177,13,16)" d="M 4254 3743 L 4232 3711 L 4218 3711 L 4171 3745 L 4193 3766 L 4170 3780 L 4198 3819 L 4221 3828 L 4252 3839 L 4251 3852 L 4293 3889 L 4305 3914 L 4273 3939 L 4288 3975 L 4269 4022 L 4310 4057 L 4284 4088 L 4303 4099 L 4298 4127 L 4269 4135 L 4247 4119 L 4244 4137 L 4266 4190 L 4236 4257 L 4255 4279 L 4284 4257 L 4305 4215 L 4346 4217 L 4393 4237 L 4416 4198 L 4456 4188 L 4451 4165 L 4478 4146 L 4507 4087 L 4495 4054 L 4509 4013 L 4535 4004 L 4544 3982 L 4500 3952 L 4505 3923 L 4441 3866 L 4420 3828 L 4387 3820 L 4378 3800 L 4385 3771 L 4350 3745 L 4301 3743 L 4298 3756 L 4254 3743 L 4254 3743 Z" stroke="#cccccc" stroke-width="inherit" opacity="1" class="highcharts-point highcharts-name-khakass highcharts-key-ru-kk"></path><path fill="rgb(177,13,16)" d="M -312 4422 L -339 4458 L -347 4497 L -329 4499 L -274 4575 L -282 4601 L -275 4608 L -243 4600 L -227 4616 L -204 4580 L -187 4587 L -151 4537 L -147 4517 L -120 4519 L -114 4474 L -171 4468 L -190 4414 L -217 4405 L -234 4426 L -252 4412 L -312 4422 L -312 4422 Z" stroke="#cccccc" stroke-width="inherit" opacity="1" class="highcharts-point highcharts-name-chechnya highcharts-key-ru-cn"></path><path fill="rgb(177,13,16)" d="M 117 4585 L 115 4576 L 39 4548 L -7 4551 L -27 4604 L -81 4664 L -74 4691 L -110 4792 L -130 4817 L -139 4850 L -131 4898 L -161 4943 L -175 5003 L -226 5010 L -259 5037 L -287 5076 L -272 5097 L -262 5080 L -235 5081 L -219 5065 L -208 5100 L -183 5068 L -181 5043 L -155 5020 L -148 4961 L -122 4942 L -94 4950 L -84 4930 L -73 4963 L -10 4958 L 51 5007 L 41 5029 L 2 5017 L 7 5053 L 25 5074 L 75 5067 L 93 5040 L 115 5053 L 125 5083 L 136 5060 L 123 5047 L 139 5030 L 168 5030 L 182 4994 L 194 4946 L 187 4877 L 198 4853 L 242 4848 L 243 4834 L 208 4839 L 193 4778 L 202 4722 L 162 4725 L 151 4712 L 129 4732 L 103 4728 L 128 4697 L 111 4684 L 140 4662 L 117 4658 L 69 4632 L 118 4606 L 117 4585 L 117 4585 Z" stroke="#cccccc" stroke-width="inherit" opacity="1" class="highcharts-point highcharts-name-kalmyk highcharts-key-ru-kl"></path><path fill="rgb(177,13,16)" d="M -81 4664 L -27 4604 L -7 4551 L -29 4554 L -50 4535 L -26 4471 L -46 4417 L -72 4387 L -31 4414 L 5 4403 L -37 4399 L -74 4378 L -116 4337 L -109 4303 L -120 4262 L -123 4134 L -164 4124 L -203 4137 L -242 4127 L -287 4185 L -283 4281 L -336 4362 L -345 4408 L -312 4422 L -252 4412 L -234 4426 L -217 4405 L -190 4414 L -171 4468 L -114 4474 L -120 4519 L -147 4517 L -151 4537 L -187 4587 L -171 4604 L -201 4636 L -167 4625 L -152 4661 L -108 4651 L -81 4664 L -81 4664 Z" stroke="#cccccc" stroke-width="inherit" opacity="1" class="highcharts-point highcharts-name-dagestan highcharts-key-ru-da"></path><path fill="rgb(177,13,16)" d="M -29 5521 L -1 5491 L 32 5471 L 66 5479 L 101 5472 L 118 5484 L 108 5441 L 119 5416 L 116 5372 L 92 5365 L 57 5330 L 75 5313 L 78 5272 L 66 5249 L 35 5236 L -7 5263 L -60 5234 L -29 5197 L -28 5164 L -46 5115 L -30 5086 L 7 5053 L 2 5017 L 41 5029 L 51 5007 L -10 4958 L -73 4963 L -84 4930 L -94 4950 L -122 4942 L -148 4961 L -155 5020 L -181 5043 L -183 5068 L -208 5100 L -219 5065 L -235 5081 L -262 5080 L -272 5097 L -287 5076 L -309 5101 L -331 5117 L -320 5163 L -356 5214 L -339 5246 L -348 5260 L -328 5282 L -380 5347 L -401 5340 L -424 5367 L -401 5380 L -409 5402 L -364 5383 L -354 5366 L -328 5387 L -414 5461 L -395 5478 L -352 5491 L -319 5466 L -295 5473 L -235 5396 L -200 5414 L -174 5416 L -143 5480 L -116 5470 L -116 5505 L -98 5489 L -63 5489 L -29 5521 L -29 5521 Z" stroke="#cccccc" stroke-width="inherit" opacity="1" class="highcharts-point highcharts-name-rostov highcharts-key-ru-ro"></path><path fill="rgb(177,13,16)" d="M 38 5807 L 21 5781 L 41 5755 L 32 5731 L 10 5732 L 15 5692 L -11 5681 L -36 5629 L -60 5617 L -81 5631 L -101 5712 L -129 5712 L -127 5749 L -107 5800 L -147 5834 L -181 5849 L -192 5881 L -186 5905 L -218 5932 L -218 5962 L -195 5976 L -173 6014 L -146 5970 L -112 5975 L -84 5918 L -36 5892 L -24 5899 L 24 5853 L 38 5807 L 38 5807 Z" stroke="#cccccc" stroke-width="inherit" opacity="1" class="highcharts-point highcharts-name-belgorod highcharts-key-ru-bl"></path><path fill="rgb(177,13,16)" d="M 4981 4063 L 4997 4078 L 5040 4065 L 5069 4037 L 5103 4039 L 5133 4026 L 5138 4010 L 5173 4022 L 5206 4020 L 5227 4003 L 5199 3993 L 5205 3960 L 5182 3922 L 5188 3899 L 5216 3885 L 5194 3834 L 5168 3822 L 5162 3787 L 5146 3784 L 5132 3717 L 5159 3671 L 5188 3659 L 5178 3594 L 5105 3538 L 5069 3556 L 5010 3549 L 4958 3561 L 4926 3540 L 4881 3544 L 4864 3556 L 4835 3549 L 4805 3579 L 4791 3621 L 4671 3622 L 4665 3643 L 4635 3627 L 4600 3649 L 4587 3627 L 4547 3625 L 4515 3594 L 4475 3588 L 4446 3568 L 4381 3540 L 4372 3524 L 4339 3516 L 4327 3579 L 4360 3588 L 4315 3646 L 4284 3675 L 4275 3726 L 4254 3743 L 4298 3756 L 4301 3743 L 4350 3745 L 4385 3771 L 4378 3800 L 4387 3820 L 4420 3828 L 4455 3791 L 4522 3791 L 4565 3777 L 4646 3786 L 4693 3830 L 4722 3844 L 4729 3875 L 4759 3931 L 4793 3944 L 4796 4000 L 4855 4025 L 4867 4014 L 4900 4038 L 4931 4032 L 4942 4055 L 4961 4044 L 4981 4063 L 4981 4063 Z" stroke="#cccccc" stroke-width="inherit" opacity="1" class="highcharts-point highcharts-name-tuva highcharts-key-ru-tu"></path><path fill="rgb(177,13,16)" d="M 5227 4003 L 5206 4020 L 5173 4022 L 5138 4010 L 5133 4026 L 5103 4039 L 5069 4037 L 5040 4065 L 4997 4078 L 4981 4063 L 4964 4068 L 4920 4115 L 4882 4135 L 4913 4186 L 4957 4183 L 4963 4240 L 4950 4252 L 4957 4286 L 4974 4298 L 4954 4354 L 4979 4407 L 4999 4402 L 5014 4424 L 5013 4451 L 5033 4455 L 5020 4508 L 4994 4510 L 5003 4530 L 4981 4540 L 5014 4651 L 5082 4658 L 5098 4652 L 5132 4667 L 5148 4711 L 5173 4715 L 5219 4646 L 5246 4633 L 5261 4656 L 5242 4700 L 5264 4718 L 5259 4735 L 5288 4757 L 5301 4792 L 5329 4807 L 5350 4842 L 5332 4899 L 5370 4931 L 5428 4887 L 5449 4891 L 5503 4861 L 5530 4885 L 5518 4896 L 5552 4947 L 5526 4993 L 5512 4987 L 5490 5015 L 5501 5039 L 5527 5044 L 5518 5105 L 5474 5100 L 5453 5110 L 5424 5165 L 5439 5217 L 5429 5240 L 5496 5308 L 5488 5327 L 5514 5364 L 5501 5392 L 5517 5449 L 5494 5455 L 5455 5499 L 5462 5531 L 5481 5552 L 5464 5563 L 5467 5617 L 5458 5637 L 5514 5633 L 5516 5654 L 5554 5673 L 5527 5692 L 5558 5705 L 5582 5674 L 5587 5648 L 5562 5640 L 5565 5606 L 5622 5623 L 5653 5601 L 5679 5549 L 5689 5546 L 5687 5487 L 5731 5491 L 5748 5460 L 5736 5412 L 5767 5376 L 5775 5344 L 5808 5332 L 5829 5339 L 5837 5272 L 5825 5231 L 5825 5183 L 5834 5172 L 5826 5083 L 5889 5035 L 5933 5059 L 5940 5096 L 5976 5099 L 6027 5131 L 6035 5169 L 6050 5146 L 6077 5153 L 6084 5119 L 6136 5176 L 6128 5219 L 6152 5247 L 6170 5302 L 6167 5337 L 6185 5372 L 6215 5407 L 6248 5405 L 6285 5415 L 6322 5404 L 6364 5367 L 6368 5336 L 6433 5347 L 6452 5381 L 6506 5363 L 6503 5344 L 6542 5306 L 6554 5273 L 6582 5273 L 6597 5241 L 6567 5217 L 6535 5227 L 6486 5209 L 6477 5190 L 6495 5127 L 6481 5114 L 6577 5033 L 6572 5006 L 6555 5016 L 6530 4969 L 6489 4968 L 6473 4955 L 6433 4959 L 6461 5001 L 6427 4998 L 6406 4966 L 6377 4956 L 6379 4894 L 6331 4867 L 6328 4844 L 6286 4847 L 6274 4835 L 6222 4831 L 6203 4855 L 6192 4835 L 6140 4822 L 6104 4836 L 6107 4806 L 6093 4789 L 6045 4775 L 6002 4778 L 5984 4730 L 5962 4729 L 5913 4689 L 5916 4648 L 5936 4649 L 5982 4614 L 5963 4612 L 5957 4539 L 5979 4514 L 5998 4439 L 5992 4417 L 6033 4424 L 6014 4314 L 6006 4225 L 5873 4076 L 5848 4010 L 5802 3955 L 5762 3929 L 5770 3881 L 5733 3873 L 5700 3844 L 5692 3878 L 5667 3885 L 5646 3873 L 5625 3895 L 5624 3918 L 5577 3935 L 5548 3963 L 5487 3962 L 5440 3988 L 5351 4023 L 5322 4048 L 5309 4075 L 5275 4058 L 5263 4033 L 5235 4026 L 5227 4003 L 5227 4003 Z" stroke="#cccccc" stroke-width="inherit" opacity="1" class="highcharts-point highcharts-name-irkutsk highcharts-key-ru-ir"></path><path fill="rgb(113,134,169)" d="M 6597 5241 L 6627 5179 L 6646 5159 L 6668 5165 L 6711 5135 L 6719 5114 L 6745 5111 L 6736 5087 L 6777 5066 L 6803 5074 L 6833 5065 L 6809 5028 L 6836 5001 L 6885 5053 L 6902 5063 L 6926 5045 L 6949 5009 L 6980 5044 L 6997 5034 L 7029 4977 L 7022 4942 L 7041 4950 L 7060 4924 L 7084 4921 L 7055 4898 L 7078 4846 L 7113 4837 L 7150 4796 L 7097 4738 L 7071 4723 L 7053 4646 L 7041 4622 L 7053 4604 L 7081 4626 L 7111 4629 L 7117 4601 L 7146 4581 L 7143 4546 L 7122 4495 L 7132 4409 L 7124 4377 L 7134 4356 L 7128 4296 L 7148 4302 L 7162 4270 L 7149 4247 L 7112 4221 L 7089 4165 L 7063 4126 L 7011 4116 L 6894 4117 L 6860 4081 L 6825 4066 L 6750 4082 L 6706 4068 L 6656 4008 L 6633 3968 L 6630 3932 L 6606 3908 L 6576 3901 L 6545 3871 L 6482 3839 L 6436 3788 L 6397 3789 L 6382 3772 L 6277 3761 L 6218 3738 L 6146 3762 L 6136 3798 L 6115 3796 L 6110 3820 L 6123 3851 L 6180 3896 L 6127 3899 L 6126 3956 L 6140 3975 L 6121 3980 L 6128 4022 L 6194 4024 L 6255 4082 L 6317 4089 L 6341 4144 L 6385 4189 L 6400 4235 L 6434 4239 L 6439 4261 L 6474 4276 L 6492 4302 L 6522 4313 L 6552 4362 L 6551 4418 L 6513 4427 L 6475 4469 L 6550 4562 L 6578 4640 L 6617 4674 L 6655 4694 L 6658 4739 L 6626 4772 L 6596 4774 L 6579 4789 L 6548 4772 L 6519 4806 L 6507 4840 L 6490 4850 L 6454 4912 L 6437 4907 L 6433 4959 L 6473 4955 L 6489 4968 L 6530 4969 L 6555 5016 L 6572 5006 L 6577 5033 L 6481 5114 L 6495 5127 L 6477 5190 L 6486 5209 L 6535 5227 L 6567 5217 L 6597 5241 L 6597 5241 Z" stroke="#cccccc" stroke-width="inherit" opacity="1" class="highcharts-point highcharts-name-chita highcharts-key-ru-ct"></path><path fill="rgb(177,13,16)" d="M 8188 4787 L 8207 4821 L 8198 4863 L 8215 4876 L 8238 4912 L 8259 4914 L 8247 4950 L 8284 4948 L 8308 4980 L 8322 4972 L 8360 4989 L 8397 4966 L 8437 4992 L 8474 5003 L 8485 5034 L 8511 5033 L 8542 5063 L 8548 5026 L 8519 4999 L 8482 4938 L 8477 4904 L 8447 4879 L 8430 4834 L 8441 4799 L 8370 4729 L 8351 4725 L 8325 4692 L 8266 4706 L 8252 4745 L 8202 4756 L 8188 4787 L 8188 4787 Z" stroke="#cccccc" stroke-width="inherit" opacity="1" class="highcharts-point highcharts-name-yevrey highcharts-key-ru-yv"></path><path fill="rgb(177,13,16)" d="M 8215 4876 L 8198 4863 L 8207 4821 L 8188 4787 L 8160 4761 L 8119 4757 L 8054 4769 L 8027 4737 L 7989 4729 L 7985 4742 L 7932 4694 L 7907 4684 L 7863 4689 L 7835 4736 L 7807 4733 L 7768 4776 L 7715 4789 L 7685 4825 L 7652 4832 L 7602 4862 L 7595 4886 L 7467 4934 L 7404 4927 L 7347 4893 L 7323 4900 L 7262 4890 L 7234 4872 L 7211 4842 L 7170 4818 L 7150 4796 L 7113 4837 L 7078 4846 L 7055 4898 L 7084 4921 L 7060 4924 L 7041 4950 L 7022 4942 L 7029 4977 L 6997 5034 L 6980 5044 L 6949 5009 L 6926 5045 L 6902 5063 L 6885 5053 L 6836 5001 L 6809 5028 L 6833 5065 L 6803 5074 L 6777 5066 L 6736 5087 L 6745 5111 L 6766 5142 L 6815 5175 L 6846 5185 L 6877 5166 L 6917 5190 L 6966 5180 L 6974 5200 L 7020 5204 L 7060 5226 L 7124 5212 L 7148 5199 L 7184 5215 L 7200 5235 L 7232 5234 L 7267 5258 L 7279 5243 L 7309 5258 L 7333 5300 L 7381 5313 L 7428 5366 L 7453 5363 L 7493 5388 L 7478 5407 L 7510 5450 L 7537 5463 L 7599 5513 L 7615 5516 L 7662 5557 L 7680 5589 L 7703 5605 L 7741 5582 L 7751 5535 L 7733 5515 L 7740 5495 L 7714 5418 L 7735 5383 L 7715 5359 L 7712 5326 L 7730 5297 L 7772 5313 L 7808 5341 L 7855 5303 L 7860 5288 L 7903 5329 L 7967 5401 L 7959 5417 L 7971 5452 L 8011 5469 L 8028 5522 L 8069 5526 L 8090 5512 L 8101 5462 L 8137 5441 L 8148 5407 L 8035 5346 L 8052 5323 L 8081 5318 L 8082 5302 L 8050 5268 L 8042 5243 L 8051 5210 L 8018 5147 L 7996 5129 L 8032 5097 L 8010 5060 L 8032 4973 L 8055 4992 L 8066 4966 L 8106 4984 L 8139 4973 L 8140 4946 L 8157 4954 L 8207 4900 L 8215 4876 L 8215 4876 Z" stroke="#cccccc" stroke-width="inherit" opacity="1" class="highcharts-point highcharts-name-amur highcharts-key-ru-am"></path><path fill="rgb(174,12,15)" d="M 450 5561 L 406 5562 L 332 5528 L 318 5543 L 276 5629 L 244 5654 L 263 5664 L 242 5701 L 287 5716 L 279 5754 L 282 5803 L 306 5807 L 367 5849 L 378 5837 L 422 5833 L 437 5787 L 461 5786 L 487 5804 L 534 5757 L 504 5734 L 486 5575 L 455 5576 L 450 5561 L 450 5561 Z" stroke="#cccccc" stroke-width="inherit" opacity="1" class="highcharts-point highcharts-name-tambov highcharts-key-ru-tb"></path><path fill="rgb(171,12,15)" d="M 378 6032 L 354 5994 L 317 5958 L 290 5952 L 266 5966 L 245 5935 L 220 5946 L 208 5986 L 197 5986 L 199 6020 L 213 6030 L 188 6053 L 171 6086 L 164 6171 L 185 6197 L 225 6192 L 232 6214 L 262 6193 L 285 6161 L 301 6165 L 316 6195 L 322 6170 L 365 6182 L 371 6152 L 401 6134 L 394 6117 L 409 6080 L 391 6076 L 378 6032 L 378 6032 Z" stroke="#cccccc" stroke-width="inherit" opacity="1" class="highcharts-point highcharts-name-tula highcharts-key-ru-tl"></path><path fill="rgb(169,11,14)" d="M 723 6700 L 722 6657 L 708 6652 L 737 6613 L 735 6565 L 723 6561 L 701 6567 L 665 6608 L 633 6608 L 627 6628 L 606 6621 L 589 6678 L 549 6695 L 541 6674 L 493 6679 L 466 6664 L 447 6700 L 404 6710 L 358 6748 L 331 6749 L 310 6789 L 296 6813 L 332 6849 L 372 6863 L 401 6888 L 384 6932 L 390 6960 L 409 6973 L 446 6965 L 464 6959 L 492 6975 L 511 6938 L 569 6931 L 562 6917 L 601 6914 L 621 6925 L 646 6890 L 631 6866 L 640 6844 L 684 6839 L 702 6799 L 696 6764 L 723 6700 L 723 6700 Z" stroke="#cccccc" stroke-width="inherit" opacity="1" class="highcharts-point highcharts-name-novgorod highcharts-key-ru-ng"></path><path fill="rgb(166,11,14)" d="M 553 5069 L 533 5069 L 513 5045 L 462 5050 L 407 5010 L 414 4979 L 334 4955 L 326 4995 L 300 5019 L 252 5020 L 216 5042 L 175 5034 L 182 4994 L 168 5030 L 139 5030 L 123 5047 L 136 5060 L 125 5083 L 115 5053 L 93 5040 L 75 5067 L 25 5074 L 7 5053 L -30 5086 L -46 5115 L -28 5164 L -29 5197 L -60 5234 L -7 5263 L 35 5236 L 66 5249 L 78 5272 L 75 5313 L 57 5330 L 92 5365 L 116 5372 L 119 5416 L 108 5441 L 118 5484 L 167 5505 L 163 5548 L 224 5529 L 249 5535 L 269 5501 L 319 5466 L 328 5414 L 395 5364 L 422 5355 L 455 5305 L 449 5263 L 416 5239 L 450 5212 L 478 5211 L 470 5178 L 498 5152 L 520 5159 L 526 5121 L 548 5097 L 553 5069 L 553 5069 Z" stroke="#cccccc" stroke-width="inherit" opacity="1" class="highcharts-point highcharts-name-volgograd highcharts-key-ru-vg"></path><path fill="rgb(163,10,13)" d="M 1208 5913 L 1269 5948 L 1300 5933 L 1341 5945 L 1360 5930 L 1373 5947 L 1374 6007 L 1400 6028 L 1411 6062 L 1442 6082 L 1415 6101 L 1416 6134 L 1442 6113 L 1515 6159 L 1541 6172 L 1578 6129 L 1569 6117 L 1589 6092 L 1562 6023 L 1530 6020 L 1488 5967 L 1515 5933 L 1499 5918 L 1518 5882 L 1503 5865 L 1519 5852 L 1557 5893 L 1608 5888 L 1637 5870 L 1668 5879 L 1684 5845 L 1748 5861 L 1755 5842 L 1761 5830 L 1825 5772 L 1820 5752 L 1788 5724 L 1777 5729 L 1736 5702 L 1729 5676 L 1755 5641 L 1731 5628 L 1732 5604 L 1703 5593 L 1695 5572 L 1662 5587 L 1662 5613 L 1634 5612 L 1583 5661 L 1538 5643 L 1536 5613 L 1505 5576 L 1469 5569 L 1445 5589 L 1425 5572 L 1411 5523 L 1419 5509 L 1390 5495 L 1377 5503 L 1348 5434 L 1334 5433 L 1317 5477 L 1331 5492 L 1311 5503 L 1323 5549 L 1301 5558 L 1319 5587 L 1305 5606 L 1318 5626 L 1289 5645 L 1309 5681 L 1273 5668 L 1271 5683 L 1238 5712 L 1212 5704 L 1197 5730 L 1165 5727 L 1124 5780 L 1179 5833 L 1223 5795 L 1277 5826 L 1263 5852 L 1208 5902 L 1208 5913 L 1208 5913 Z" stroke="#cccccc" stroke-width="inherit" opacity="1" class="highcharts-point highcharts-name-kirov highcharts-key-ru-kv"></path><path fill="rgb(160,10,12)" d="M 1301 5558 L 1283 5544 L 1273 5566 L 1220 5586 L 1153 5565 L 1123 5566 L 1108 5600 L 1117 5625 L 1094 5659 L 1105 5677 L 1079 5692 L 1040 5697 L 1006 5716 L 1005 5757 L 1026 5770 L 1012 5790 L 1024 5803 L 1046 5793 L 1069 5813 L 1124 5780 L 1165 5727 L 1197 5730 L 1212 5704 L 1238 5712 L 1271 5683 L 1273 5668 L 1309 5681 L 1289 5645 L 1318 5626 L 1305 5606 L 1319 5587 L 1301 5558 L 1301 5558 Z" stroke="#cccccc" stroke-width="inherit" opacity="1" class="highcharts-point highcharts-name-mariy-el highcharts-key-ru-me"></path><path fill="rgb(157,9,12)" d="M 4221 3828 L 4227 3867 L 4207 3862 L 4181 3881 L 4154 3869 L 4112 3893 L 4092 3929 L 4106 3957 L 4073 3976 L 4103 4017 L 4077 4015 L 4053 4035 L 4026 4090 L 3980 4125 L 3968 4123 L 3939 4162 L 3930 4198 L 3943 4217 L 3928 4234 L 3932 4290 L 3909 4340 L 3911 4383 L 3901 4384 L 4002 4410 L 4047 4434 L 4100 4451 L 4127 4436 L 4139 4455 L 4189 4435 L 4244 4472 L 4261 4472 L 4270 4453 L 4251 4444 L 4257 4418 L 4296 4397 L 4321 4324 L 4295 4313 L 4255 4279 L 4236 4257 L 4266 4190 L 4244 4137 L 4247 4119 L 4269 4135 L 4298 4127 L 4303 4099 L 4284 4088 L 4310 4057 L 4269 4022 L 4288 3975 L 4273 3939 L 4305 3914 L 4293 3889 L 4251 3852 L 4252 3839 L 4221 3828 L 4221 3828 Z" stroke="#cccccc" stroke-width="inherit" opacity="1" class="highcharts-point highcharts-name-kemerovo highcharts-key-ru-ke"></path><path fill="rgb(155,9,11)" d="M 334 4955 L 299 4940 L 332 4884 L 293 4836 L 299 4805 L 319 4815 L 329 4793 L 360 4765 L 366 4695 L 352 4652 L 347 4597 L 320 4605 L 310 4628 L 293 4625 L 326 4536 L 299 4536 L 267 4552 L 247 4518 L 241 4547 L 188 4552 L 140 4590 L 117 4585 L 118 4606 L 69 4632 L 117 4658 L 140 4662 L 111 4684 L 128 4697 L 103 4728 L 129 4732 L 151 4712 L 162 4725 L 202 4722 L 193 4778 L 208 4839 L 243 4834 L 242 4848 L 198 4853 L 187 4877 L 194 4946 L 182 4994 L 175 5034 L 216 5042 L 252 5020 L 300 5019 L 326 4995 L 334 4955 L 334 4955 Z" stroke="#cccccc" stroke-width="inherit" opacity="1" class="highcharts-point highcharts-name-astrakhan' highcharts-key-ru-as"></path><path fill="rgb(152,8,11)" d="M 8909 5239 L 8949 5260 L 8955 5185 L 9001 5082 L 9013 5008 L 9015 4927 L 9008 4886 L 9017 4836 L 9012 4811 L 9024 4762 L 9013 4736 L 9023 4659 L 9036 4650 L 9029 4615 L 9038 4592 L 9019 4520 L 9001 4474 L 8997 4434 L 8968 4396 L 8950 4354 L 8923 4354 L 8914 4333 L 8894 4342 L 8858 4304 L 8820 4348 L 8812 4296 L 8799 4280 L 8801 4316 L 8776 4304 L 8784 4289 L 8777 4237 L 8787 4193 L 8734 4156 L 8764 4160 L 8771 4123 L 8706 4145 L 8727 4185 L 8748 4200 L 8727 4276 L 8704 4281 L 8666 4342 L 8594 4390 L 8569 4397 L 8599 4444 L 8599 4511 L 8623 4514 L 8654 4499 L 8663 4476 L 8716 4471 L 8722 4505 L 8707 4560 L 8724 4587 L 8697 4620 L 8707 4656 L 8686 4691 L 8693 4708 L 8676 4730 L 8682 4757 L 8657 4775 L 8654 4801 L 8682 4836 L 8659 4864 L 8661 4894 L 8686 4938 L 8727 4946 L 8729 4931 L 8757 4963 L 8778 4958 L 8835 5011 L 8841 5065 L 8822 5099 L 8857 5118 L 8870 5197 L 8852 5208 L 8831 5190 L 8759 5189 L 8757 5210 L 8784 5241 L 8792 5298 L 8809 5308 L 8853 5282 L 8887 5286 L 8884 5250 L 8909 5239 L 8909 5239 Z" stroke="#cccccc" stroke-width="inherit" opacity="1" class="highcharts-point highcharts-name-primor'ye highcharts-key-ru-pr"></path><path fill="rgb(149,8,10)" d="M 8272 8004 L 8298 7956 L 8361 7793 L 8329 7806 L 8307 7835 L 8306 7788 L 8287 7808 L 8264 7799 L 8235 7849 L 8184 7872 L 8205 7829 L 8200 7803 L 8167 7804 L 8148 7728 L 8155 7711 L 8132 7673 L 8144 7607 L 8184 7589 L 8194 7539 L 8222 7506 L 8241 7425 L 8263 7383 L 8286 7366 L 8280 7346 L 8321 7314 L 8352 7374 L 8400 7372 L 8372 7326 L 8378 7284 L 8331 7249 L 8355 7197 L 8317 7166 L 8328 7132 L 8306 7085 L 8266 7083 L 8287 7132 L 8295 7175 L 8266 7142 L 8217 7139 L 8204 7104 L 8217 7096 L 8199 7072 L 8180 7076 L 8129 7029 L 8125 6991 L 8142 6987 L 8126 6962 L 8142 6945 L 8165 6951 L 8143 6917 L 8127 6923 L 8107 6893 L 8110 6857 L 8067 6824 L 8069 6840 L 8021 6877 L 8000 6859 L 7939 6862 L 7924 6820 L 7898 6817 L 7875 6838 L 7876 6884 L 7892 6901 L 7867 6919 L 7856 6950 L 7788 6980 L 7742 6980 L 7705 6964 L 7705 6939 L 7666 6906 L 7656 6950 L 7630 6963 L 7638 6988 L 7608 6996 L 7555 7026 L 7514 7086 L 7492 7094 L 7498 7134 L 7481 7176 L 7525 7204 L 7525 7234 L 7564 7236 L 7537 7276 L 7515 7270 L 7503 7300 L 7530 7309 L 7551 7341 L 7551 7385 L 7567 7394 L 7608 7383 L 7626 7403 L 7606 7414 L 7623 7454 L 7627 7504 L 7651 7503 L 7626 7557 L 7586 7561 L 7555 7590 L 7561 7641 L 7507 7668 L 7501 7687 L 7522 7702 L 7514 7726 L 7492 7726 L 7478 7755 L 7500 7767 L 7516 7817 L 7545 7844 L 7534 7866 L 7572 7870 L 7588 7893 L 7571 7922 L 7588 7965 L 7557 7980 L 7587 8010 L 7647 7971 L 7713 8028 L 7759 8036 L 7778 8079 L 7828 8096 L 7877 8161 L 7863 8175 L 7893 8168 L 7921 8179 L 7943 8153 L 7941 8128 L 7971 8128 L 7982 8110 L 8016 8117 L 8042 8088 L 8071 8084 L 8077 8050 L 8099 8043 L 8133 8059 L 8190 8046 L 8192 8005 L 8212 8024 L 8230 8002 L 8272 8004 L 8272 8004 Z" stroke="#cccccc" stroke-width="inherit" opacity="1" class="highcharts-point highcharts-name-maga-buryatdan highcharts-key-ru-mg"></path><path fill="rgb(146,7,9)" d="M 6115 3796 L 6064 3784 L 5997 3811 L 5960 3795 L 5931 3802 L 5866 3794 L 5784 3748 L 5769 3726 L 5719 3708 L 5606 3721 L 5577 3733 L 5544 3803 L 5541 3834 L 5462 3836 L 5373 3857 L 5325 3849 L 5291 3865 L 5257 3865 L 5216 3885 L 5188 3899 L 5182 3922 L 5205 3960 L 5199 3993 L 5227 4003 L 5235 4026 L 5263 4033 L 5275 4058 L 5309 4075 L 5322 4048 L 5351 4023 L 5440 3988 L 5487 3962 L 5548 3963 L 5577 3935 L 5624 3918 L 5625 3895 L 5646 3873 L 5667 3885 L 5692 3878 L 5700 3844 L 5733 3873 L 5770 3881 L 5762 3929 L 5802 3955 L 5848 4010 L 5873 4076 L 6006 4225 L 6014 4314 L 6033 4424 L 5992 4417 L 5998 4439 L 5979 4514 L 5957 4539 L 5963 4612 L 5982 4614 L 5936 4649 L 5916 4648 L 5913 4689 L 5962 4729 L 5984 4730 L 6002 4778 L 6045 4775 L 6093 4789 L 6107 4806 L 6104 4836 L 6140 4822 L 6192 4835 L 6203 4855 L 6222 4831 L 6274 4835 L 6286 4847 L 6328 4844 L 6331 4867 L 6379 4894 L 6377 4956 L 6406 4966 L 6427 4998 L 6461 5001 L 6433 4959 L 6437 4907 L 6454 4912 L 6490 4850 L 6507 4840 L 6519 4806 L 6548 4772 L 6579 4789 L 6596 4774 L 6626 4772 L 6658 4739 L 6655 4694 L 6617 4674 L 6578 4640 L 6550 4562 L 6475 4469 L 6513 4427 L 6551 4418 L 6552 4362 L 6522 4313 L 6492 4302 L 6474 4276 L 6439 4261 L 6434 4239 L 6400 4235 L 6385 4189 L 6341 4144 L 6317 4089 L 6255 4082 L 6194 4024 L 6128 4022 L 6121 3980 L 6140 3975 L 6126 3956 L 6127 3899 L 6180 3896 L 6123 3851 L 6110 3820 L 6115 3796 L 6115 3796 Z" stroke="#cccccc" stroke-width="inherit" opacity="1" class="highcharts-point highcharts-name-buryat highcharts-key-ru-bu"></path><path fill="rgb(143,7,9)" d="M -266 7403 L -268 7346 L -248 7309 L -262 7282 L -336 7261 L -395 7435 L -419 7510 L -366 7468 L -375 7505 L -343 7511 L -308 7413 L -276 7429 L -266 7403 L -266 7403 Z" stroke="#cccccc" stroke-width="inherit" opacity="1" class="highcharts-point highcharts-name-kaliningrad highcharts-key-ru-kn"></path><path fill="rgb(113,134,169)" d="M -611 4944 L -640 4989 L -677 4994 L -678 5033 L -672 5148 L -680 5197 L -701 5240 L -693 5290 L -721 5324 L -707 5362 L -724 5445 L -683 5443 L -674 5408 L -686 5402 L -645 5377 L -636 5353 L -608 5393 L -583 5382 L -543 5393 L -514 5378 L -496 5349 L -497 5408 L -509 5420 L -491 5466 L -476 5436 L -409 5402 L -401 5380 L -424 5367 L -401 5340 L -380 5347 L -328 5282 L -348 5260 L -339 5246 L -356 5214 L -320 5163 L -331 5117 L -343 5091 L -378 5119 L -396 5108 L -415 5064 L -391 5036 L -406 5006 L -394 4992 L -437 4986 L -439 4938 L -480 4916 L -507 4920 L -532 4980 L -545 4962 L -563 4972 L -611 4944 L -611 4944 M -484 5119 L -506 5141 L -517 5179 L -559 5190 L -582 5211 L -600 5248 L -597 5196 L -563 5153 L -544 5177 L -537 5148 L -519 5142 L -536 5107 L -592 5094 L -583 5060 L -612 5057 L -613 5084 L -642 5062 L -618 5000 L -582 5004 L -553 5032 L -532 5066 L -511 5074 L -500 5060 L -510 5022 L -482 5079 L -484 5119 L -484 5119 Z" stroke="#cccccc" stroke-width="inherit" opacity="1" class="highcharts-point highcharts-name-krasnodar highcharts-key-ru-kd"></path><path fill="rgb(138,6,8)" d="M 2574 4603 L 2556 4587 L 2528 4598 L 2508 4570 L 2458 4575 L 2355 4597 L 2312 4602 L 2270 4623 L 2245 4619 L 2235 4596 L 2214 4615 L 2133 4638 L 2072 4646 L 2063 4674 L 2091 4692 L 2094 4717 L 2041 4734 L 2046 4747 L 2009 4754 L 2022 4808 L 2037 4795 L 2051 4818 L 2041 4835 L 2060 4846 L 2099 4842 L 2106 4887 L 2095 4897 L 2100 4939 L 2111 4958 L 2164 4976 L 2163 4964 L 2231 4948 L 2279 4901 L 2309 4930 L 2351 4924 L 2359 4909 L 2341 4876 L 2344 4843 L 2382 4823 L 2393 4774 L 2418 4774 L 2425 4754 L 2491 4727 L 2491 4694 L 2548 4665 L 2541 4652 L 2574 4603 L 2574 4603 Z" stroke="#cccccc" stroke-width="inherit" opacity="1" class="highcharts-point highcharts-name-kurgan highcharts-key-ru-ku"></path><path fill="rgb(135,5,7)" d="M 3797 3645 L 3774 3680 L 3739 3701 L 3673 3697 L 3641 3675 L 3574 3694 L 3543 3691 L 3542 3723 L 3509 3726 L 3522 3750 L 3481 3780 L 3455 3770 L 3450 3737 L 3403 3722 L 3371 3826 L 3278 4079 L 3265 4104 L 3312 4133 L 3313 4118 L 3346 4115 L 3374 4131 L 3423 4123 L 3467 4149 L 3543 4174 L 3571 4196 L 3582 4160 L 3613 4145 L 3617 4125 L 3645 4126 L 3639 4090 L 3692 4049 L 3720 4090 L 3765 4123 L 3781 4105 L 3799 4127 L 3863 4133 L 3879 4121 L 3903 4146 L 3939 4162 L 3968 4123 L 3980 4125 L 4026 4090 L 4053 4035 L 4077 4015 L 4103 4017 L 4073 3976 L 4106 3957 L 4092 3929 L 4112 3893 L 4082 3900 L 4058 3863 L 4075 3851 L 4069 3826 L 4039 3816 L 3992 3826 L 3970 3780 L 3950 3778 L 3919 3749 L 3897 3753 L 3835 3728 L 3796 3704 L 3843 3685 L 3842 3649 L 3797 3645 L 3797 3645 Z" stroke="#cccccc" stroke-width="inherit" opacity="1" class="highcharts-point highcharts-name-altay highcharts-key-ru-al"></path><path fill="rgb(129,4,6)" d="M 1773 5161 L 1742 5153 L 1718 5161 L 1707 5215 L 1676 5219 L 1679 5247 L 1636 5254 L 1602 5275 L 1591 5320 L 1562 5309 L 1569 5357 L 1550 5364 L 1566 5383 L 1578 5369 L 1594 5390 L 1617 5394 L 1644 5435 L 1637 5457 L 1659 5471 L 1678 5507 L 1679 5546 L 1695 5572 L 1703 5593 L 1732 5604 L 1731 5628 L 1755 5641 L 1729 5676 L 1736 5702 L 1777 5729 L 1788 5724 L 1820 5752 L 1825 5772 L 1761 5830 L 1755 5842 L 1773 5862 L 1756 5906 L 1786 5931 L 1810 5907 L 1827 5918 L 1845 5899 L 1862 5911 L 1885 5884 L 1873 5868 L 1895 5844 L 1910 5856 L 1967 5795 L 2008 5811 L 2028 5791 L 2050 5804 L 2071 5782 L 2096 5802 L 2123 5802 L 2241 5723 L 2295 5721 L 2287 5696 L 2256 5668 L 2239 5610 L 2217 5585 L 2149 5533 L 2094 5517 L 2068 5494 L 2101 5421 L 2068 5379 L 2084 5359 L 2074 5331 L 1980 5306 L 1976 5265 L 1949 5259 L 1927 5288 L 1903 5279 L 1873 5217 L 1826 5220 L 1799 5231 L 1796 5205 L 1773 5161 L 1773 5161 Z" stroke="#cccccc" stroke-width="inherit" opacity="1" class="highcharts-point highcharts-name-perm' highcharts-key-ru-pe"></path><path fill="rgb(139,127,154)" d="M -484 5119 L -482 5079 L -510 5022 L -500 5060 L -511 5074 L -532 5066 L -553 5032 L -582 5004 L -618 5000 L -642 5062 L -613 5084 L -612 5057 L -583 5060 L -592 5094 L -536 5107 L -519 5142 L -537 5148 L -544 5177 L -563 5153 L -597 5196 L -600 5248 L -582 5211 L -559 5190 L -517 5179 L -506 5141 L -484 5119 L -484 5119 Z" stroke="#cccccc" stroke-width="inherit" opacity="1" class="highcharts-point highcharts-name-adygey highcharts-key-ru-ad"></path><path fill="#f7f7f7" d="M -997 5645 L -999 5692 L -982 5676 L -956 5694 L -960 5675 L -974 5674 L -968 5667 L -985 5636 L -997 5645 L -997 5645 Z" stroke="#cccccc" stroke-width="inherit" opacity="1" class="highcharts-point highcharts-null-point highcharts-name-sevastopol highcharts-key-ru-sc"></path><path fill="#f7f7f7" d="M -997 5645 L -985 5636 L -968 5667 L -974 5674 L -960 5675 L -956 5694 L -929 5712 L -928 5733 L -941 5745 L -939 5788 L -963 5819 L -959 5836 L -876 5799 L -836 5757 L -823 5755 L -830 5771 L -797 5786 L -801 5768 L -793 5765 L -805 5755 L -801 5743 L -794 5753 L -790 5743 L -799 5721 L -791 5721 L -788 5734 L -777 5710 L -791 5692 L -782 5695 L -785 5686 L -776 5682 L -771 5689 L -769 5679 L -799 5681 L -766 5665 L -786 5665 L -777 5658 L -788 5654 L -778 5626 L -792 5601 L -803 5605 L -806 5587 L -790 5553 L -770 5629 L -786 5552 L -767 5535 L -745 5534 L -747 5512 L -715 5495 L -701 5464 L -705 5453 L -727 5465 L -749 5448 L -796 5496 L -805 5536 L -832 5535 L -838 5547 L -867 5550 L -888 5584 L -913 5601 L -942 5600 L -970 5612 L -997 5645 L -997 5645 Z" stroke="#cccccc" stroke-width="inherit" opacity="1" class="highcharts-point highcharts-null-point highcharts-name-crimea highcharts-key-ru-kr"></path><path fill="#f7f7f7" d="M 7257 8693 L 7282 8677 L 7280 8661 L 7232 8612 L 7210 8643 L 7243 8696 L 7257 8693 L 7257 8693 M 7123 9331 L 7144 9264 L 7132 9232 L 7148 9216 L 7157 9175 L 7124 9166 L 7096 9180 L 7046 9244 L 7052 9307 L 7094 9353 L 7123 9331 L 7123 9331 M 7183 8343 L 7201 8410 L 7193 8425 L 7233 8457 L 7240 8500 L 7269 8561 L 7240 8613 L 7275 8628 L 7320 8621 L 7351 8670 L 7399 8678 L 7398 8718 L 7380 8750 L 7336 8758 L 7292 8748 L 7268 8719 L 7268 8753 L 7219 8762 L 7247 8828 L 7256 8867 L 7276 8885 L 7262 8901 L 7275 8928 L 7286 9004 L 7326 9096 L 7352 9139 L 7346 9147 L 7378 9193 L 7418 9230 L 7452 9294 L 7482 9302 L 7508 9357 L 7550 9413 L 7570 9427 L 7578 9466 L 7597 9497 L 7643 9509 L 7637 9528 L 7684 9527 L 7722 9543 L 7738 9528 L 7754 9561 L 7790 9563 L 7760 9587 L 7748 9571 L 7731 9589 L 7690 9579 L 7678 9558 L 7673 9621 L 7692 9659 L 7673 9652 L 7675 9712 L 7711 9738 L 7775 9823 L 7771 9849 L 7789 9851 L 7794 9826 L 7816 9807 L 7852 9811 L 7847 9773 L 7872 9770 L 7880 9714 L 7860 9697 L 7946 9728 L 7982 9690 L 8008 9696 L 7981 9709 L 7988 9737 L 8001 9706 L 8038 9732 L 8055 9695 L 8059 9645 L 7999 9567 L 8008 9523 L 7978 9492 L 7960 9499 L 7921 9485 L 7896 9418 L 7921 9392 L 7923 9338 L 7914 9323 L 7838 9294 L 7846 9309 L 7824 9322 L 7793 9315 L 7821 9305 L 7831 9246 L 7876 9249 L 7898 9276 L 7967 9253 L 7985 9218 L 8013 9199 L 8034 9118 L 8020 9082 L 7995 9070 L 7975 9038 L 8006 9060 L 7990 8982 L 8041 9022 L 8023 9040 L 8017 9072 L 8066 9068 L 8097 9102 L 8078 9121 L 8136 9144 L 8182 9149 L 8212 9138 L 8240 9185 L 8273 9181 L 8312 9205 L 8338 9189 L 8360 9158 L 8334 9098 L 8326 9046 L 8294 9049 L 8308 9021 L 8327 9041 L 8335 9004 L 8359 8973 L 8382 8902 L 8419 8839 L 8396 8842 L 8381 8819 L 8328 8822 L 8311 8784 L 8328 8759 L 8319 8700 L 8308 8683 L 8324 8642 L 8313 8623 L 8326 8595 L 8314 8556 L 8258 8536 L 8205 8496 L 8179 8455 L 8130 8516 L 8117 8544 L 8072 8536 L 8056 8508 L 8010 8492 L 7996 8443 L 7950 8422 L 7957 8392 L 7937 8357 L 7939 8334 L 7909 8330 L 7887 8292 L 7907 8286 L 7862 8246 L 7848 8204 L 7863 8175 L 7877 8161 L 7828 8096 L 7778 8079 L 7759 8036 L 7713 8028 L 7647 7971 L 7587 8010 L 7557 7980 L 7539 7984 L 7506 8024 L 7468 8026 L 7409 7993 L 7363 8013 L 7368 8043 L 7351 8035 L 7324 8057 L 7328 8148 L 7346 8209 L 7338 8235 L 7369 8283 L 7334 8312 L 7305 8314 L 7300 8329 L 7261 8323 L 7253 8340 L 7199 8332 L 7183 8343 L 7183 8343 Z" stroke="#cccccc" stroke-width="inherit" opacity="1" class="highcharts-point highcharts-null-point highcharts-name-chukchi-autonomous-okrug highcharts-key-ru-2485"></path><path fill="#f7f7f7" d="M 630 6278 L 627 6270 L 628 6264 L 603 6250 L 560 6185 L 578 6155 L 579 6118 L 612 6094 L 603 6057 L 578 6022 L 531 6038 L 536 6023 L 486 6038 L 450 6029 L 425 6053 L 410 6030 L 378 6032 L 391 6076 L 409 6080 L 394 6117 L 401 6134 L 371 6152 L 365 6182 L 370 6192 L 375 6204 L 413 6199 L 504 6229 L 489 6257 L 464 6240 L 429 6239 L 422 6262 L 390 6239 L 375 6280 L 352 6283 L 328 6338 L 313 6348 L 316 6357 L 373 6392 L 383 6418 L 454 6439 L 474 6387 L 537 6357 L 541 6336 L 568 6350 L 593 6329 L 623 6328 L 618 6295 L 630 6278 L 630 6278 M 452 6263 L 459 6263 L 451 6274 L 445 6271 L 452 6263 L 452 6263 M 496 6276 L 498 6288 L 489 6284 L 489 6276 L 496 6276 L 496 6276 Z" stroke="#cccccc" stroke-width="inherit" opacity="1" class="highcharts-point highcharts-null-point highcharts-name-moskovsskaya highcharts-key-ru-2509"></path><path fill="rgb(113,134,169)" d="M 2421 6894 L 2443 6911 L 2380 6896 L 2338 6922 L 2340 6954 L 2379 6990 L 2419 6996 L 2438 6982 L 2451 6925 L 2447 6907 L 2421 6894 L 2421 6894 M 2875 6782 L 2887 6800 L 2919 6806 L 2941 6700 L 2928 6675 L 2886 6698 L 2893 6723 L 2876 6742 L 2875 6782 L 2875 6782 M 3108 6509 L 3070 6490 L 3061 6469 L 3093 6442 L 3079 6390 L 3041 6404 L 3018 6382 L 2972 6376 L 2969 6356 L 2896 6344 L 2881 6321 L 2795 6306 L 2715 6347 L 2651 6386 L 2409 6548 L 2346 6611 L 2296 6618 L 2285 6603 L 2110 6626 L 2073 6661 L 2020 6647 L 1997 6671 L 1983 6724 L 1961 6754 L 1930 6853 L 1969 6868 L 1994 6892 L 2002 6917 L 1993 6946 L 2009 6963 L 2070 6995 L 2120 7035 L 2123 7107 L 2141 7075 L 2190 7023 L 2205 6989 L 2198 6934 L 2177 6897 L 2110 6939 L 2077 6932 L 2053 6913 L 2063 6871 L 2047 6833 L 2070 6796 L 2137 6770 L 2156 6793 L 2189 6808 L 2195 6825 L 2251 6807 L 2267 6820 L 2312 6803 L 2397 6806 L 2400 6796 L 2475 6781 L 2454 6760 L 2488 6751 L 2481 6782 L 2557 6779 L 2576 6752 L 2547 6740 L 2523 6695 L 2510 6717 L 2491 6709 L 2522 6681 L 2544 6683 L 2558 6649 L 2579 6672 L 2645 6671 L 2700 6619 L 2751 6635 L 2804 6628 L 2811 6585 L 2783 6576 L 2770 6549 L 2792 6524 L 2815 6532 L 2820 6563 L 2857 6551 L 2891 6565 L 2905 6589 L 2892 6601 L 2902 6666 L 2932 6664 L 2950 6684 L 3026 6625 L 3083 6566 L 3108 6509 L 3108 6509 Z" stroke="#cccccc" stroke-width="inherit" opacity="1" class="highcharts-point highcharts-name-nenets highcharts-key-ru-nn" data-z-index="0"></path><path fill="rgb(177,13,16)" d="M 2325 5753 L 2307 5742 L 2295 5721 L 2241 5723 L 2123 5802 L 2096 5802 L 2071 5782 L 2050 5804 L 2028 5791 L 2008 5811 L 1967 5795 L 1910 5856 L 1895 5844 L 1873 5868 L 1885 5884 L 1862 5911 L 1845 5899 L 1827 5918 L 1810 5907 L 1786 5931 L 1756 5906 L 1773 5862 L 1755 5842 L 1748 5861 L 1684 5845 L 1668 5879 L 1637 5870 L 1608 5888 L 1557 5893 L 1519 5852 L 1503 5865 L 1518 5882 L 1499 5918 L 1515 5933 L 1488 5967 L 1530 6020 L 1562 6023 L 1589 6092 L 1612 6108 L 1668 6083 L 1714 6120 L 1701 6150 L 1747 6185 L 1761 6184 L 1830 6240 L 1798 6279 L 1762 6292 L 1720 6252 L 1692 6277 L 1662 6280 L 1668 6305 L 1696 6334 L 1707 6362 L 1734 6360 L 1761 6373 L 1750 6422 L 1771 6437 L 1782 6468 L 1777 6500 L 1759 6533 L 1760 6576 L 1788 6568 L 1902 6474 L 1905 6448 L 1956 6453 L 1978 6429 L 1998 6436 L 2023 6401 L 2058 6423 L 2047 6450 L 2060 6514 L 2030 6535 L 2110 6626 L 2285 6603 L 2296 6618 L 2346 6611 L 2409 6548 L 2651 6386 L 2715 6347 L 2795 6306 L 2881 6321 L 2896 6344 L 2969 6356 L 2972 6376 L 3018 6382 L 3041 6404 L 3079 6390 L 3056 6367 L 3047 6325 L 3081 6312 L 3068 6274 L 3051 6280 L 3056 6253 L 2988 6230 L 2970 6201 L 2855 6190 L 2791 6147 L 2783 6128 L 2729 6132 L 2660 6105 L 2660 6096 L 2599 6071 L 2582 6107 L 2534 6087 L 2492 6023 L 2500 6005 L 2471 5987 L 2411 5924 L 2383 5879 L 2372 5811 L 2329 5770 L 2325 5753 L 2325 5753 Z" stroke="#cccccc" stroke-width="inherit" opacity="1" class="highcharts-point highcharts-name-komi highcharts-key-ru-ko" data-z-index="0"></path><path fill="rgb(132,5,6)" d="M 3987 5239 L 3990 5200 L 4053 5155 L 4086 5142 L 4063 5107 L 3956 5055 L 3936 5053 L 3904 5088 L 3877 5088 L 3818 5052 L 3795 5028 L 3775 5047 L 3724 5054 L 3697 5081 L 3654 5069 L 3595 5080 L 3586 5106 L 3558 5103 L 3441 5139 L 3422 5096 L 3402 5090 L 3401 5063 L 3365 4974 L 3328 4977 L 3277 4945 L 3269 4910 L 3221 4875 L 3193 4897 L 3144 4909 L 3112 4935 L 3069 4949 L 3068 4992 L 3051 4990 L 3022 5067 L 2982 5115 L 2979 5132 L 2918 5140 L 2905 5157 L 2867 5172 L 2849 5191 L 2828 5184 L 2838 5164 L 2773 5154 L 2746 5125 L 2698 5133 L 2634 5116 L 2613 5126 L 2597 5093 L 2566 5094 L 2535 5112 L 2519 5126 L 2511 5234 L 2438 5291 L 2456 5331 L 2464 5384 L 2449 5414 L 2454 5500 L 2470 5514 L 2461 5567 L 2407 5656 L 2341 5700 L 2349 5725 L 2325 5753 L 2329 5770 L 2372 5811 L 2383 5879 L 2411 5924 L 2471 5987 L 2500 6005 L 2492 6023 L 2534 6087 L 2582 6107 L 2599 6071 L 2660 6096 L 2660 6105 L 2729 6132 L 2736 6113 L 2731 6070 L 2744 6056 L 2710 6007 L 2707 5985 L 2681 5972 L 2717 5947 L 2724 5903 L 2793 5896 L 2826 5882 L 2847 5892 L 2891 5875 L 2932 5842 L 2910 5810 L 2930 5780 L 2959 5760 L 3011 5780 L 3034 5759 L 3044 5788 L 3069 5783 L 3107 5746 L 3127 5743 L 3148 5713 L 3127 5694 L 3135 5642 L 3163 5631 L 3169 5610 L 3155 5560 L 3195 5564 L 3226 5551 L 3261 5564 L 3269 5527 L 3324 5506 L 3337 5484 L 3363 5475 L 3424 5471 L 3451 5441 L 3475 5447 L 3500 5432 L 3512 5391 L 3552 5347 L 3608 5357 L 3677 5343 L 3688 5368 L 3738 5392 L 3774 5400 L 3786 5356 L 3816 5333 L 3834 5346 L 3878 5334 L 3913 5287 L 3948 5297 L 3975 5268 L 3987 5239 L 3987 5239 Z" stroke="#cccccc" stroke-width="inherit" opacity="1" class="highcharts-point highcharts-name-khanty-mansiy highcharts-key-ru-km" data-z-index="0"></path><path fill="rgb(187,115,127)" d="M 3188 6092 L 3227 6062 L 3216 6037 L 3192 6060 L 3188 6092 L 3188 6092 M 3832 6723 L 3794 6729 L 3835 6770 L 3864 6743 L 3832 6723 L 3832 6723 M 3593 6939 L 3607 6940 L 3605 6894 L 3596 6918 L 3537 6914 L 3528 6920 L 3550 6968 L 3594 6970 L 3593 6939 L 3593 6939 M 3079 6390 L 3093 6442 L 3061 6469 L 3070 6490 L 3108 6509 L 3138 6476 L 3129 6470 L 3184 6408 L 3177 6402 L 3213 6318 L 3207 6298 L 3263 6345 L 3287 6382 L 3258 6398 L 3255 6456 L 3264 6476 L 3237 6509 L 3212 6478 L 3211 6516 L 3237 6566 L 3256 6562 L 3260 6591 L 3278 6613 L 3301 6668 L 3263 6680 L 3313 6737 L 3370 6749 L 3409 6781 L 3476 6889 L 3509 6918 L 3509 6903 L 3591 6880 L 3635 6834 L 3618 6774 L 3578 6725 L 3561 6693 L 3541 6687 L 3542 6650 L 3560 6617 L 3557 6584 L 3535 6522 L 3512 6505 L 3506 6442 L 3489 6419 L 3481 6368 L 3462 6322 L 3499 6245 L 3458 6214 L 3441 6147 L 3408 6142 L 3367 6086 L 3315 6060 L 3309 6029 L 3252 6026 L 3219 6084 L 3171 6101 L 3170 6072 L 3225 6009 L 3271 5997 L 3313 5963 L 3340 5971 L 3358 6007 L 3423 6017 L 3451 6036 L 3464 6076 L 3525 6116 L 3540 6150 L 3542 6185 L 3530 6219 L 3549 6259 L 3593 6274 L 3659 6275 L 3666 6239 L 3693 6199 L 3677 6166 L 3686 6157 L 3658 6095 L 3702 6052 L 3756 6051 L 3709 6067 L 3678 6088 L 3692 6140 L 3731 6153 L 3717 6207 L 3723 6244 L 3688 6270 L 3683 6288 L 3624 6323 L 3598 6307 L 3532 6337 L 3548 6366 L 3543 6418 L 3571 6474 L 3612 6513 L 3606 6625 L 3589 6652 L 3619 6680 L 3628 6703 L 3700 6724 L 3717 6756 L 3725 6803 L 3700 6863 L 3729 6864 L 3721 6827 L 3736 6830 L 3750 6778 L 3740 6736 L 3711 6701 L 3702 6671 L 3707 6640 L 3688 6624 L 3718 6591 L 3797 6559 L 3802 6532 L 3821 6518 L 3823 6571 L 3796 6580 L 3743 6633 L 3740 6685 L 3787 6694 L 3809 6658 L 3834 6660 L 3833 6695 L 3811 6692 L 3849 6730 L 3866 6727 L 3869 6697 L 3910 6671 L 3935 6642 L 3919 6613 L 3884 6611 L 3868 6586 L 3898 6538 L 3924 6520 L 3924 6461 L 3814 6368 L 3815 6344 L 3838 6333 L 3849 6287 L 3893 6273 L 3903 6257 L 3955 6270 L 3950 6246 L 3979 6240 L 3980 6189 L 4000 6165 L 3969 6156 L 3975 6113 L 3957 6100 L 3951 6067 L 3916 6070 L 3945 6009 L 3924 5970 L 3976 5902 L 3981 5879 L 3966 5852 L 3987 5809 L 3971 5794 L 3985 5752 L 4012 5751 L 4028 5734 L 4039 5680 L 4015 5629 L 4048 5625 L 4069 5597 L 4097 5606 L 4112 5595 L 4109 5559 L 4118 5527 L 4111 5495 L 4082 5480 L 4049 5426 L 4083 5400 L 4076 5356 L 3987 5239 L 3975 5268 L 3948 5297 L 3913 5287 L 3878 5334 L 3834 5346 L 3816 5333 L 3786 5356 L 3774 5400 L 3738 5392 L 3688 5368 L 3677 5343 L 3608 5357 L 3552 5347 L 3512 5391 L 3500 5432 L 3475 5447 L 3451 5441 L 3424 5471 L 3363 5475 L 3337 5484 L 3324 5506 L 3269 5527 L 3261 5564 L 3226 5551 L 3195 5564 L 3155 5560 L 3169 5610 L 3163 5631 L 3135 5642 L 3127 5694 L 3148 5713 L 3127 5743 L 3107 5746 L 3069 5783 L 3044 5788 L 3034 5759 L 3011 5780 L 2959 5760 L 2930 5780 L 2910 5810 L 2932 5842 L 2891 5875 L 2847 5892 L 2826 5882 L 2793 5896 L 2724 5903 L 2717 5947 L 2681 5972 L 2707 5985 L 2710 6007 L 2744 6056 L 2731 6070 L 2736 6113 L 2729 6132 L 2783 6128 L 2791 6147 L 2855 6190 L 2970 6201 L 2988 6230 L 3056 6253 L 3051 6280 L 3068 6274 L 3081 6312 L 3047 6325 L 3056 6367 L 3079 6390 L 3079 6390 Z" stroke="#cccccc" stroke-width="inherit" opacity="1" class="highcharts-point highcharts-name-yamal-nenets highcharts-key-ru-yn" data-z-index="0"></path><path fill="rgb(192,114,124)" d="M 3926 6795 L 3922 6768 L 3894 6774 L 3884 6794 L 3913 6822 L 3926 6795 L 3926 6795 M 4561 7310 L 4546 7303 L 4549 7349 L 4587 7384 L 4587 7366 L 4563 7344 L 4561 7310 L 4561 7310 M 4412 7753 L 4398 7787 L 4471 7769 L 4444 7731 L 4412 7753 L 4412 7753 M 5215 7030 L 5177 7006 L 5163 7012 L 5170 7051 L 5226 7050 L 5218 7037 L 5215 7030 L 5215 7030 M 3987 5239 L 4076 5356 L 4083 5400 L 4049 5426 L 4082 5480 L 4111 5495 L 4118 5527 L 4109 5559 L 4112 5595 L 4097 5606 L 4069 5597 L 4048 5625 L 4015 5629 L 4039 5680 L 4028 5734 L 4012 5751 L 3985 5752 L 3971 5794 L 3987 5809 L 3966 5852 L 3981 5879 L 3976 5902 L 3924 5970 L 3945 6009 L 3916 6070 L 3951 6067 L 3957 6100 L 3975 6113 L 3969 6156 L 4000 6165 L 3980 6189 L 3979 6240 L 3950 6246 L 3955 6270 L 3903 6257 L 3893 6273 L 3849 6287 L 3838 6333 L 3815 6344 L 3814 6368 L 3924 6461 L 3924 6520 L 3898 6538 L 3868 6586 L 3884 6611 L 3919 6613 L 3935 6642 L 3910 6671 L 3869 6697 L 3866 6727 L 3905 6720 L 3994 6605 L 4047 6610 L 4066 6593 L 4049 6556 L 4012 6543 L 4002 6505 L 4008 6471 L 3987 6441 L 4006 6445 L 4011 6473 L 4034 6498 L 4049 6467 L 4045 6416 L 4010 6394 L 4033 6366 L 4026 6401 L 4052 6400 L 4069 6418 L 4051 6531 L 4079 6581 L 4071 6615 L 4046 6628 L 4022 6658 L 4026 6686 L 3984 6702 L 3966 6732 L 3981 6785 L 3966 6844 L 3995 6877 L 4044 6883 L 4106 6874 L 4162 6884 L 4187 6874 L 4195 6890 L 4244 6898 L 4258 6855 L 4278 6885 L 4263 6891 L 4247 6939 L 4217 6952 L 4215 6981 L 4186 6990 L 4217 6998 L 4220 6975 L 4249 6973 L 4238 6994 L 4210 7006 L 4230 7030 L 4250 7014 L 4263 7032 L 4233 7037 L 4262 7054 L 4264 7036 L 4343 7118 L 4374 7136 L 4503 7180 L 4482 7211 L 4542 7221 L 4577 7251 L 4613 7263 L 4612 7237 L 4582 7230 L 4587 7201 L 4627 7226 L 4653 7215 L 4653 7234 L 4679 7250 L 4719 7234 L 4707 7265 L 4678 7296 L 4700 7292 L 4744 7310 L 4750 7345 L 4734 7373 L 4761 7441 L 4787 7486 L 4808 7501 L 4855 7485 L 4870 7493 L 4889 7471 L 4863 7436 L 4839 7420 L 4886 7429 L 4895 7415 L 4920 7430 L 4947 7416 L 4931 7350 L 4975 7369 L 4970 7398 L 5013 7415 L 5039 7415 L 5070 7435 L 5088 7421 L 5120 7432 L 5143 7400 L 5159 7411 L 5196 7350 L 5208 7352 L 5217 7315 L 5164 7333 L 5187 7301 L 5219 7304 L 5232 7273 L 5223 7223 L 5204 7197 L 5152 7094 L 5156 7074 L 5131 7037 L 5112 6973 L 5077 6959 L 5070 6910 L 5052 6907 L 5043 6822 L 5066 6859 L 5063 6891 L 5119 6905 L 5140 6934 L 5169 6955 L 5161 6977 L 5190 6975 L 5220 7020 L 5220 6975 L 5254 6931 L 5250 6908 L 5266 6877 L 5292 6870 L 5296 6845 L 5346 6828 L 5385 6732 L 5426 6719 L 5417 6681 L 5385 6646 L 5352 6625 L 5341 6595 L 5357 6569 L 5330 6552 L 5323 6524 L 5341 6505 L 5341 6465 L 5292 6460 L 5285 6435 L 5235 6392 L 5213 6392 L 5206 6364 L 5265 6303 L 5295 6204 L 5323 6094 L 5266 6029 L 5299 6020 L 5331 5967 L 5323 5950 L 5336 5921 L 5359 5905 L 5371 5858 L 5407 5846 L 5390 5821 L 5393 5797 L 5369 5761 L 5387 5747 L 5367 5710 L 5379 5685 L 5428 5694 L 5527 5692 L 5554 5673 L 5516 5654 L 5514 5633 L 5458 5637 L 5467 5617 L 5464 5563 L 5481 5552 L 5462 5531 L 5455 5499 L 5494 5455 L 5517 5449 L 5501 5392 L 5514 5364 L 5488 5327 L 5496 5308 L 5429 5240 L 5439 5217 L 5424 5165 L 5453 5110 L 5474 5100 L 5518 5105 L 5527 5044 L 5501 5039 L 5490 5015 L 5512 4987 L 5526 4993 L 5552 4947 L 5518 4896 L 5530 4885 L 5503 4861 L 5449 4891 L 5428 4887 L 5370 4931 L 5332 4899 L 5350 4842 L 5329 4807 L 5301 4792 L 5288 4757 L 5259 4735 L 5264 4718 L 5242 4700 L 5261 4656 L 5246 4633 L 5219 4646 L 5173 4715 L 5148 4711 L 5132 4667 L 5098 4652 L 5082 4658 L 5014 4651 L 4981 4540 L 5003 4530 L 4994 4510 L 5020 4508 L 5033 4455 L 5013 4451 L 5014 4424 L 4999 4402 L 4979 4407 L 4954 4354 L 4974 4298 L 4957 4286 L 4950 4252 L 4963 4240 L 4957 4183 L 4913 4186 L 4882 4135 L 4920 4115 L 4964 4068 L 4981 4063 L 4961 4044 L 4942 4055 L 4931 4032 L 4900 4038 L 4867 4014 L 4855 4025 L 4796 4000 L 4793 3944 L 4759 3931 L 4729 3875 L 4722 3844 L 4693 3830 L 4646 3786 L 4565 3777 L 4522 3791 L 4455 3791 L 4420 3828 L 4441 3866 L 4505 3923 L 4500 3952 L 4544 3982 L 4535 4004 L 4509 4013 L 4495 4054 L 4507 4087 L 4478 4146 L 4451 4165 L 4456 4188 L 4416 4198 L 4393 4237 L 4346 4217 L 4305 4215 L 4284 4257 L 4255 4279 L 4295 4313 L 4321 4324 L 4296 4397 L 4257 4418 L 4251 4444 L 4270 4453 L 4261 4472 L 4270 4507 L 4254 4509 L 4283 4555 L 4325 4583 L 4321 4627 L 4283 4629 L 4228 4651 L 4212 4710 L 4249 4762 L 4284 4779 L 4266 4817 L 4216 4814 L 4189 4867 L 4163 4875 L 4155 4903 L 4071 4918 L 4035 4912 L 3975 4919 L 3964 4930 L 3988 4983 L 3956 5055 L 4063 5107 L 4086 5142 L 4053 5155 L 3990 5200 L 3987 5239 L 3987 5239 M 4656 7515 L 4668 7573 L 4679 7681 L 4703 7730 L 4725 7711 L 4724 7645 L 4731 7678 L 4752 7699 L 4781 7663 L 4802 7661 L 4817 7631 L 4813 7603 L 4847 7592 L 4866 7604 L 4863 7580 L 4894 7594 L 4897 7574 L 4863 7576 L 4847 7590 L 4803 7593 L 4780 7572 L 4709 7547 L 4681 7508 L 4656 7515 L 4656 7515 M 4445 7694 L 4484 7748 L 4501 7797 L 4564 7815 L 4590 7775 L 4591 7801 L 4607 7802 L 4636 7768 L 4635 7754 L 4635 7693 L 4621 7692 L 4653 7651 L 4641 7628 L 4595 7619 L 4565 7641 L 4515 7643 L 4495 7670 L 4491 7705 L 4475 7714 L 4445 7694 L 4445 7694 M 4553 7822 L 4489 7800 L 4477 7775 L 4413 7819 L 4422 7845 L 4441 7853 L 4452 7895 L 4434 7890 L 4445 7923 L 4406 7934 L 4375 7937 L 4377 7953 L 4408 7950 L 4445 7923 L 4485 7947 L 4503 7970 L 4536 7918 L 4563 7891 L 4546 7881 L 4553 7822 L 4553 7822 Z" stroke="#cccccc" stroke-width="inherit" opacity="1" class="highcharts-point highcharts-name-krasnoyarsk highcharts-key-ru-ky" data-z-index="0"></path><path fill="rgb(208,110,115)" d="M 9772 6213 L 9802 6123 L 9809 6049 L 9800 6028 L 9782 6068 L 9787 6084 L 9774 6141 L 9785 6169 L 9772 6213 L 9772 6213 M 9768 6400 L 9783 6359 L 9779 6339 L 9762 6387 L 9768 6400 L 9768 6400 M 9554 6756 L 9583 6777 L 9586 6792 L 9621 6765 L 9629 6733 L 9583 6776 L 9554 6756 L 9554 6756 M 9841 5550 L 9841 5550 L 9841 5550 L 9841 5550 L 9841 5550 L 9841 5550 L 9841 5550 L 9841 5550 M 9841 5550 L 9833 5588 L 9834 5633 L 9851 5668 L 9849 5632 L 9833 5588 L 9844 5554 L 9841 5550 L 9841 5550 L 9841 5550 M 9496 6939 L 9471 6925 L 9495 6941 L 9493 6996 L 9523 6984 L 9505 6961 L 9549 6916 L 9547 6845 L 9516 6857 L 9521 6910 L 9496 6939 L 9496 6939 M 9841 5550 L 9831 5536 L 9769 5517 L 9756 5522 L 9753 5568 L 9726 5639 L 9761 5677 L 9754 5623 L 9767 5567 L 9766 5538 L 9784 5523 L 9827 5538 L 9841 5550 L 9841 5550 L 9841 5550 L 9841 5550 M 9784 5851 L 9766 5824 L 9779 5797 L 9788 5711 L 9775 5709 L 9769 5738 L 9755 5804 L 9754 5856 L 9733 5878 L 9761 5876 L 9772 5900 L 9764 5945 L 9772 5963 L 9792 5957 L 9776 5886 L 9784 5851 L 9784 5851 M 8735 5966 L 8756 5968 L 8826 5943 L 8943 5888 L 8988 5881 L 9054 5860 L 9089 5843 L 9135 5837 L 9070 5822 L 9012 5771 L 9029 5772 L 9023 5739 L 9047 5710 L 9117 5600 L 9144 5579 L 9191 5570 L 9229 5577 L 9298 5546 L 9313 5580 L 9363 5558 L 9375 5528 L 9341 5536 L 9331 5551 L 9286 5504 L 9265 5510 L 9260 5478 L 9313 5387 L 9288 5384 L 9221 5422 L 9188 5479 L 9123 5518 L 9099 5566 L 9059 5591 L 8992 5607 L 8989 5623 L 8914 5706 L 8841 5761 L 8815 5769 L 8781 5806 L 8770 5832 L 8716 5851 L 8663 5844 L 8593 5897 L 8581 5928 L 8539 5970 L 8492 5989 L 8502 6036 L 8523 6027 L 8523 6069 L 8502 6065 L 8514 6091 L 8481 6105 L 8426 6107 L 8434 6122 L 8431 6146 L 8477 6142 L 8506 6107 L 8540 6102 L 8601 6081 L 8653 6048 L 8687 6004 L 8735 5966 L 8735 5966 Z" stroke="#cccccc" stroke-width="inherit" opacity="1" class="highcharts-point highcharts-name-sakhalin highcharts-key-ru-sl" data-z-index="0"></path><path fill="rgb(202,111,118)" d="M 8055 5810 L 8070 5819 L 8059 5869 L 8083 5885 L 8109 5884 L 8123 5856 L 8124 5822 L 8085 5831 L 8080 5805 L 8055 5810 L 8055 5810 M 8067 6824 L 8037 6803 L 8065 6774 L 8036 6746 L 8021 6769 L 7985 6704 L 7930 6640 L 7923 6606 L 7904 6588 L 7887 6514 L 7911 6428 L 7903 6366 L 7911 6334 L 7940 6293 L 7930 6247 L 7942 6217 L 7933 6161 L 7935 6100 L 7952 6025 L 7968 6022 L 7958 5997 L 7963 5952 L 7954 5814 L 7958 5756 L 7946 5727 L 7946 5689 L 7966 5675 L 8011 5691 L 8078 5765 L 8145 5678 L 8171 5706 L 8159 5739 L 8134 5735 L 8142 5797 L 8153 5822 L 8159 5743 L 8198 5763 L 8213 5695 L 8243 5739 L 8249 5781 L 8240 5822 L 8258 5806 L 8265 5760 L 8283 5775 L 8254 5832 L 8217 5862 L 8267 5893 L 8280 5932 L 8331 5941 L 8350 5927 L 8395 5928 L 8437 5946 L 8497 5946 L 8497 5910 L 8550 5885 L 8554 5862 L 8596 5865 L 8627 5842 L 8636 5795 L 8630 5775 L 8649 5758 L 8648 5736 L 8676 5713 L 8686 5684 L 8715 5647 L 8762 5619 L 8780 5622 L 8785 5586 L 8825 5572 L 8880 5487 L 8917 5444 L 8924 5314 L 8949 5260 L 8909 5239 L 8884 5250 L 8887 5286 L 8853 5282 L 8809 5308 L 8792 5298 L 8784 5241 L 8757 5210 L 8759 5189 L 8831 5190 L 8852 5208 L 8870 5197 L 8857 5118 L 8822 5099 L 8841 5065 L 8835 5011 L 8778 4958 L 8757 4963 L 8729 4931 L 8727 4946 L 8686 4938 L 8661 4894 L 8659 4864 L 8682 4836 L 8654 4801 L 8607 4873 L 8616 4914 L 8611 4962 L 8564 4979 L 8553 5010 L 8519 4999 L 8548 5026 L 8542 5063 L 8511 5033 L 8485 5034 L 8474 5003 L 8437 4992 L 8397 4966 L 8360 4989 L 8322 4972 L 8308 4980 L 8284 4948 L 8247 4950 L 8259 4914 L 8238 4912 L 8215 4876 L 8207 4900 L 8157 4954 L 8140 4946 L 8139 4973 L 8106 4984 L 8066 4966 L 8055 4992 L 8032 4973 L 8010 5060 L 8032 5097 L 7996 5129 L 8018 5147 L 8051 5210 L 8042 5243 L 8050 5268 L 8082 5302 L 8081 5318 L 8052 5323 L 8035 5346 L 8148 5407 L 8137 5441 L 8101 5462 L 8090 5512 L 8069 5526 L 8028 5522 L 8011 5469 L 7971 5452 L 7959 5417 L 7967 5401 L 7903 5329 L 7860 5288 L 7855 5303 L 7808 5341 L 7772 5313 L 7730 5297 L 7712 5326 L 7715 5359 L 7735 5383 L 7714 5418 L 7740 5495 L 7733 5515 L 7751 5535 L 7741 5582 L 7703 5605 L 7680 5589 L 7662 5557 L 7615 5516 L 7599 5513 L 7576 5532 L 7544 5610 L 7571 5632 L 7545 5681 L 7469 5686 L 7494 5720 L 7475 5752 L 7483 5784 L 7451 5786 L 7406 5804 L 7453 5819 L 7441 5851 L 7414 5872 L 7425 5911 L 7404 5939 L 7417 5949 L 7398 5975 L 7414 6022 L 7450 6053 L 7487 6068 L 7527 6103 L 7513 6141 L 7518 6175 L 7541 6180 L 7587 6212 L 7600 6244 L 7592 6296 L 7627 6332 L 7570 6375 L 7532 6432 L 7501 6436 L 7488 6467 L 7494 6493 L 7479 6507 L 7503 6565 L 7470 6636 L 7474 6658 L 7442 6690 L 7437 6727 L 7478 6746 L 7547 6741 L 7551 6760 L 7590 6760 L 7607 6790 L 7593 6818 L 7640 6854 L 7665 6836 L 7681 6851 L 7666 6906 L 7705 6939 L 7705 6964 L 7742 6980 L 7788 6980 L 7856 6950 L 7867 6919 L 7892 6901 L 7876 6884 L 7875 6838 L 7898 6817 L 7924 6820 L 7939 6862 L 8000 6859 L 8021 6877 L 8069 6840 L 8067 6824 L 8067 6824 Z" stroke="#cccccc" stroke-width="inherit" opacity="1" class="highcharts-point highcharts-name-khabarovsk highcharts-key-ru-kh" data-z-index="0"></path><path fill="rgb(171,119,136)" d="M 7184 8285 L 7224 8269 L 7263 8267 L 7242 8253 L 7193 8266 L 7184 8285 L 7184 8285 M 6179 7748 L 6137 7766 L 6147 7791 L 6182 7771 L 6179 7748 L 6179 7748 M 5277 7145 L 5270 7101 L 5244 7099 L 5208 7116 L 5223 7124 L 5217 7150 L 5268 7162 L 5277 7145 L 5277 7145 M 5899 7752 L 5890 7741 L 5846 7796 L 5882 7785 L 5899 7752 L 5899 7752 M 6231 7691 L 6198 7763 L 6217 7795 L 6241 7805 L 6294 7808 L 6334 7786 L 6330 7768 L 6273 7723 L 6242 7709 L 6231 7691 L 6231 7691 M 5220 7020 L 5217 7025 L 5215 7030 L 5218 7037 L 5226 7050 L 5276 7044 L 5294 7081 L 5323 7046 L 5319 7022 L 5347 7004 L 5353 7021 L 5330 7036 L 5370 7067 L 5390 7096 L 5474 7117 L 5511 7137 L 5537 7089 L 5600 7093 L 5653 7110 L 5700 7138 L 5703 7157 L 5731 7156 L 5722 7202 L 5697 7216 L 5684 7262 L 5704 7260 L 5702 7291 L 5770 7288 L 5787 7306 L 5804 7293 L 5815 7326 L 5853 7345 L 5862 7326 L 5905 7336 L 5940 7330 L 5914 7277 L 5942 7312 L 5964 7291 L 5962 7246 L 5979 7260 L 6014 7245 L 6010 7209 L 5940 7219 L 6124 7130 L 6200 7124 L 6213 7158 L 6193 7211 L 6152 7295 L 6203 7283 L 6234 7284 L 6268 7305 L 6270 7340 L 6291 7381 L 6401 7412 L 6392 7426 L 6335 7406 L 6378 7476 L 6416 7470 L 6435 7506 L 6371 7532 L 6353 7565 L 6334 7541 L 6308 7584 L 6338 7619 L 6342 7645 L 6294 7656 L 6333 7677 L 6459 7795 L 6521 7828 L 6483 7776 L 6462 7768 L 6479 7727 L 6485 7758 L 6526 7831 L 6557 7759 L 6539 7729 L 6563 7719 L 6566 7763 L 6531 7843 L 6562 7887 L 6610 7922 L 6648 7923 L 6659 7898 L 6634 7894 L 6651 7865 L 6677 7901 L 6701 7882 L 6712 7917 L 6741 7901 L 6736 7925 L 6762 7943 L 6804 7946 L 6801 7923 L 6828 7939 L 6862 8001 L 6861 8032 L 6878 8114 L 6923 8202 L 6975 8247 L 7004 8259 L 6995 8305 L 7018 8262 L 7065 8258 L 7108 8220 L 7151 8239 L 7163 8268 L 7237 8245 L 7261 8262 L 7315 8222 L 7270 8267 L 7228 8272 L 7178 8288 L 7193 8306 L 7183 8343 L 7199 8332 L 7253 8340 L 7261 8323 L 7300 8329 L 7305 8314 L 7334 8312 L 7369 8283 L 7338 8235 L 7346 8209 L 7328 8148 L 7324 8057 L 7351 8035 L 7368 8043 L 7363 8013 L 7409 7993 L 7468 8026 L 7506 8024 L 7539 7984 L 7557 7980 L 7588 7965 L 7571 7922 L 7588 7893 L 7572 7870 L 7534 7866 L 7545 7844 L 7516 7817 L 7500 7767 L 7478 7755 L 7492 7726 L 7514 7726 L 7522 7702 L 7501 7687 L 7507 7668 L 7561 7641 L 7555 7590 L 7586 7561 L 7626 7557 L 7651 7503 L 7627 7504 L 7623 7454 L 7606 7414 L 7626 7403 L 7608 7383 L 7567 7394 L 7551 7385 L 7551 7341 L 7530 7309 L 7503 7300 L 7515 7270 L 7537 7276 L 7564 7236 L 7525 7234 L 7525 7204 L 7481 7176 L 7498 7134 L 7492 7094 L 7514 7086 L 7555 7026 L 7608 6996 L 7638 6988 L 7630 6963 L 7656 6950 L 7666 6906 L 7681 6851 L 7665 6836 L 7640 6854 L 7593 6818 L 7607 6790 L 7590 6760 L 7551 6760 L 7547 6741 L 7478 6746 L 7437 6727 L 7442 6690 L 7474 6658 L 7470 6636 L 7503 6565 L 7479 6507 L 7494 6493 L 7488 6467 L 7501 6436 L 7532 6432 L 7570 6375 L 7627 6332 L 7592 6296 L 7600 6244 L 7587 6212 L 7541 6180 L 7518 6175 L 7513 6141 L 7527 6103 L 7487 6068 L 7450 6053 L 7414 6022 L 7398 5975 L 7417 5949 L 7404 5939 L 7425 5911 L 7414 5872 L 7441 5851 L 7453 5819 L 7406 5804 L 7451 5786 L 7483 5784 L 7475 5752 L 7494 5720 L 7469 5686 L 7545 5681 L 7571 5632 L 7544 5610 L 7576 5532 L 7599 5513 L 7537 5463 L 7510 5450 L 7478 5407 L 7493 5388 L 7453 5363 L 7428 5366 L 7381 5313 L 7333 5300 L 7309 5258 L 7279 5243 L 7267 5258 L 7232 5234 L 7200 5235 L 7184 5215 L 7148 5199 L 7124 5212 L 7060 5226 L 7020 5204 L 6974 5200 L 6966 5180 L 6917 5190 L 6877 5166 L 6846 5185 L 6815 5175 L 6766 5142 L 6745 5111 L 6719 5114 L 6711 5135 L 6668 5165 L 6646 5159 L 6627 5179 L 6597 5241 L 6582 5273 L 6554 5273 L 6542 5306 L 6503 5344 L 6506 5363 L 6452 5381 L 6433 5347 L 6368 5336 L 6364 5367 L 6322 5404 L 6285 5415 L 6248 5405 L 6215 5407 L 6185 5372 L 6167 5337 L 6170 5302 L 6152 5247 L 6128 5219 L 6136 5176 L 6084 5119 L 6077 5153 L 6050 5146 L 6035 5169 L 6027 5131 L 5976 5099 L 5940 5096 L 5933 5059 L 5889 5035 L 5826 5083 L 5834 5172 L 5825 5183 L 5825 5231 L 5837 5272 L 5829 5339 L 5808 5332 L 5775 5344 L 5767 5376 L 5736 5412 L 5748 5460 L 5731 5491 L 5687 5487 L 5689 5546 L 5679 5549 L 5653 5601 L 5622 5623 L 5565 5606 L 5562 5640 L 5587 5648 L 5582 5674 L 5558 5705 L 5527 5692 L 5428 5694 L 5379 5685 L 5367 5710 L 5387 5747 L 5369 5761 L 5393 5797 L 5390 5821 L 5407 5846 L 5371 5858 L 5359 5905 L 5336 5921 L 5323 5950 L 5331 5967 L 5299 6020 L 5266 6029 L 5323 6094 L 5295 6204 L 5265 6303 L 5206 6364 L 5213 6392 L 5235 6392 L 5285 6435 L 5292 6460 L 5341 6465 L 5341 6505 L 5323 6524 L 5330 6552 L 5357 6569 L 5341 6595 L 5352 6625 L 5385 6646 L 5417 6681 L 5426 6719 L 5385 6732 L 5346 6828 L 5296 6845 L 5292 6870 L 5266 6877 L 5250 6908 L 5254 6931 L 5220 6975 L 5220 7020 L 5220 7020 M 6155 8035 L 6120 8072 L 6155 8068 L 6159 8085 L 6180 8122 L 6209 8113 L 6213 8134 L 6263 8180 L 6288 8155 L 6277 8098 L 6251 8068 L 6155 8035 L 6155 8035 M 6006 7983 L 6040 8020 L 6108 8036 L 6104 8010 L 6124 8003 L 6140 7965 L 6097 7930 L 6061 7938 L 6034 7982 L 6018 7964 L 6035 7939 L 6096 7918 L 6138 7938 L 6121 7885 L 6100 7884 L 6065 7817 L 6038 7812 L 6063 7783 L 6023 7757 L 5959 7763 L 5927 7778 L 5942 7790 L 5904 7814 L 5902 7838 L 5879 7851 L 5885 7915 L 5903 7909 L 5999 7917 L 5952 7957 L 5969 7968 L 5944 7978 L 6006 7983 L 6006 7983 Z" stroke="#cccccc" stroke-width="inherit" opacity="1" class="highcharts-point highcharts-name-sakha-(yakutia) highcharts-key-ru-ck" data-z-index="0"></path>
	
	<path class="st1" d="M-763.1,5770.8l16.7-2.4l22.7,1.3l7.1-7L-763.1,5770.8L-763.1,5770.8 M-819.3,5787.3l-48,11.5l-13.7,6.6
				l52.2-13.6L-819.3,5787.3L-819.3,5787.3 M-457.3,5807.1l-13-21.4l-18.5-9.7l4.8,11.5l18,7.3l7.1,13.2l0.2-0.2L-457.3,5807.1
				L-457.3,5807.1 M-477.6,5813.1l-8.4-7.3l-11-3.1l-3.7,3.3l-10.4-15l1.8-14.8l6.4-25.1l15.8-32.6l-2.9-1.8l-11.4,22.4l-7.9-7
				l3.5,16.7l-3.1,2.2l-3.5,17.2l-4.8-3.1l-11.2,12.5l9.9,3.5l2.7,5.9l-8.6,6.2l-9-3.3l1.8-13l-6.4-14.7l-10.6-5.1l-8.6,6.2
				l4.2,17.2l8.6,3.5l3.5-7.1l2,12.5l-3.3,4.6l-6.8-7.1l-20.3,11.2l1.1-16.9l-9.7,20.2l-6.6,7.3l-3.8-7.5l6.4-8.4l-4.6-5.1l-4.4,9.3
				l-5.3-4.4l7.1-9.9l-11.5,2l-6.8,10.6l-10.3,4.9l-16.1,2.2l-9.9-4.9l0.4-7.3l-4.9-8.1l-3.8,5.1l-7.3-5.7l2.9-5.7l-4.8-7l-10.6,1.1
				l-7.7,8.4l-7.9-1.5l0.4,6.8l-9.2-1.3l2.4,15.9l-7-11.7l-6-2.9l-11.5,5.7l-0.7-7.1l-12.1-2l-14.3,3.3l-23.5-4.9l-9.9-4.8l-27.8,9
				l0.9,12.8l-17.8,1.8l-7.5,8.6l-3.7-1.5l-15.2,10.6l-0.5-6.8l-12.6,4.2l5.3,7.5l17.4,0.2l11,7l-6.2,9.3l-22,6l0,0l4.2,6.4
				l20.9-2.9l9,0.9l18.9-7.1l9.9-0.7l5.5,8.4l13.4,12.5l5.5,0.5l8.6,8.8l-27.3-13.2l-8.4-1.1l-9.5,7.1l-12.3-7.3l-3.3,7.9l-10.8,3.8
				l-6.6,15.6l12.5,4l11.4-0.2l6,9.7l15.6-0.7l3.5,6.2l16.5,0.2l0.7,5.3l15.6-4.2l3.1-3.7h13.7l13.6,5.9l-15.2,2.2l23.6,10.8l-7,2.7
				l2.4,7.3l5.7-4.9l4.2,7.5l-15.6,10.1l-1.1,4.6l7,13.9l8.2-0.7l9.9,8.1l-3.5,7l2.2,9.2l-2.9,9.2l-8.2,4.4l4.4,6.8l6.8-5.5
				l-1.1,19.1l-2.9,8.8l23.1-7.9l4.6-6.6l16.1,5.9l9.7,7.5l2.6-10.1l7.9-4.6l27.8,4.9l17.8-5.5l16.5-0.2l11.4-34.3l10.8,0.7l3.8,6.4
				l7.7,0.9l-2.2-8.1l4.4-26l3.5-2.2l3.3-15.8l4.4-6.4l13.2-5.9l9.3-16.1l-12.3-18.1l-6.4-5.3l11.9-4.9l-0.9-9.9l4.4-8.6l11.4-1.3
				l-0.2-7l8.1,0.2l13-7l3.5-24.9L-477.6,5813.1L-477.6,5813.1z"/>

				<path fill="#f7f7f7" d="M 7782 5778 L 7789 5730 L 7829 5730 L 7904 5561 L 7928 5571 L 7990 5520 L 8048 5524 L 8143 5436 L 8197 5443 L 8167 5342 L 8127 5355 L 8112 5298 L 8028 5297 L 8035 5216 L 7989 5184 L 8055 5144 L 8085 5082 L 8154 5051 L 8154 4994 L 8122 4988 L 8091 4944 L 8111 4910 L 8019 4840 L 7965 4716 L 7971 4765 L 7902 4812 L 7795 4788 L 7701 4738 L 7661 4691 L 7647 4643 L 7589 4697 L 7509 4695 L 7409 4675 L 7329 4625 L 7242 4529 L 7169 4489 L 7090 4405 L 7029 4300 L 7021 4304 L 7020 4305 L 7066 4375 L 7019 4387 L 7027 4466 L 6952 4515 L 6983 4442 L 6918 4333 L 6889 4343 L 6870 4479 L 6799 4517 L 6755 4516 L 6756 4554 L 6694 4561 L 6670 4608 L 6675 4662 L 6610 4689 L 6645 4718 L 6712 4817 L 6661 4905 L 6589 4937 L 6565 4972 L 6547 5058 L 6528 5070 L 6504 5212 L 6516 5256 L 6474 5251 L 6453 5216 L 6394 5212 L 6332 5399 L 6481 5443 L 6565 5485 L 6720 5450 L 6771 5456 L 6760 5511 L 6784 5646 L 6748 5665 L 6757 5726 L 6704 5761 L 6704 5797 L 6761 5831 L 6698 5893 L 6712 5989 L 6775 5958 L 6826 5994 L 6958 6008 L 7017 5985 L 7143 5972 L 7220 6013 L 7304 5961 L 7385 5987 L 7405 5933 L 7437 5915 L 7461 5862 L 7496 5853 L 7494 5757 L 7553 5785 L 7560 5758 L 7619 5743 L 7782 5778 L 7782 5778 Z" stroke="#cccccc" stroke-width="inherit" opacity="1" class="highcharts-point highcharts-null-point highcharts-name-zaporizhzhya highcharts-key-ua-zp"></path>

				<path fill="#f7f7f7" d="M 9289 5883 L 9192 5880 L 9164 5866 L 9132 5802 L 9117 5706 L 9081 5710 L 9014 5652 L 8886 5625 L 8852 5582 L 8836 5517 L 8841 5426 L 8811 5370 L 8812 5330 L 8869 5331 L 8867 5289 L 8820 5241 L 8833 5160 L 8770 5086 L 8781 5131 L 8743 5151 L 8716 5133 L 8612 5144 L 8547 5116 L 8439 5124 L 8381 5071 L 8296 4926 L 8247 4969 L 8111 4910 L 8091 4944 L 8122 4988 L 8154 4994 L 8154 5051 L 8085 5082 L 8055 5144 L 7989 5184 L 8035 5216 L 8028 5297 L 8112 5298 L 8127 5355 L 8167 5342 L 8197 5443 L 8143 5436 L 8048 5524 L 7990 5520 L 7928 5571 L 7904 5561 L 7829 5730 L 7789 5730 L 7782 5778 L 7754 5832 L 7814 5850 L 7777 5893 L 7780 5992 L 7826 6002 L 7929 5956 L 7966 5991 L 7949 6081 L 7981 6114 L 7963 6198 L 7913 6213 L 7899 6303 L 7944 6419 L 7938 6454 L 7895 6451 L 7880 6410 L 7856 6438 L 7879 6468 L 7839 6494 L 7811 6631 L 7893 6631 L 7938 6657 L 8007 6625 L 7996 6656 L 8058 6701 L 8104 6696 L 8124 6757 L 8179 6787 L 8163 6834 L 8208 6903 L 8339 6995 L 8328 7024 L 8278 7030 L 8302 7069 L 8359 7073 L 8437 7056 L 8481 7084 L 8535 7058 L 8514 7017 L 8558 6998 L 8619 7017 L 8606 6944 L 8632 6885 L 8595 6838 L 8717 6818 L 8733 6759 L 8761 6746 L 8787 6636 L 8756 6583 L 8775 6468 L 8805 6455 L 8802 6399 L 8866 6383 L 8916 6314 L 8880 6284 L 8910 6235 L 8970 6246 L 9020 6146 L 9136 6105 L 9131 6054 L 9171 6024 L 9273 6019 L 9297 5939 L 9289 5883 L 9289 5883 Z" stroke="#cccccc" stroke-width="inherit" opacity="1" class="highcharts-point highcharts-null-point highcharts-name-donets'k highcharts-key-ua-dt"></path>

				<path fill="#f7f7f7" d="M 9289 5883 L 9297 5939 L 9273 6019 L 9171 6024 L 9131 6054 L 9136 6105 L 9020 6146 L 8970 6246 L 8910 6235 L 8880 6284 L 8916 6314 L 8866 6383 L 8802 6399 L 8805 6455 L 8775 6468 L 8756 6583 L 8787 6636 L 8761 6746 L 8733 6759 L 8717 6818 L 8595 6838 L 8632 6885 L 8606 6944 L 8619 7017 L 8558 6998 L 8514 7017 L 8535 7058 L 8481 7084 L 8525 7135 L 8499 7160 L 8480 7254 L 8533 7351 L 8517 7420 L 8547 7477 L 8544 7524 L 8514 7528 L 8564 7601 L 8539 7632 L 8581 7655 L 8545 7708 L 8627 7742 L 8624 7851 L 8698 7857 L 8728 7796 L 8821 7763 L 8918 7784 L 8935 7740 L 9035 7704 L 9090 7651 L 9146 7659 L 9191 7715 L 9230 7713 L 9270 7631 L 9326 7600 L 9393 7627 L 9462 7609 L 9509 7512 L 9621 7457 L 9686 7482 L 9718 7521 L 9803 7518 L 9804 7476 L 9772 7450 L 9770 7391 L 9851 7287 L 9848 7206 L 9745 7085 L 9732 7013 L 9592 6975 L 9591 6929 L 9648 6866 L 9732 6859 L 9767 6837 L 9799 6872 L 9828 6858 L 9812 6805 L 9763 6776 L 9694 6796 L 9627 6727 L 9597 6578 L 9704 6585 L 9734 6562 L 9731 6509 L 9791 6402 L 9731 6334 L 9775 6311 L 9841 6312 L 9825 6264 L 9788 6224 L 9762 6164 L 9769 6088 L 9720 6064 L 9745 6026 L 9734 5898 L 9700 5876 L 9637 5887 L 9510 5870 L 9464 5887 L 9326 5863 L 9289 5883 L 9289 5883 Z" stroke="#cccccc" stroke-width="inherit" opacity="1" class="highcharts-point highcharts-null-point highcharts-name-luhans'k highcharts-key-ua-lh"></path>


				


</g>
</svg>
