<svg width="67" height="67" viewBox="0 0 67 67" fill="none" xmlns="http://www.w3.org/2000/svg">
<path d="M51.1334 42.9964C50.953 42.456 50.6325 42.0357 50.1517 41.7355C49.771 41.4953 49.3904 41.2351 49.0298 40.995C47.8878 40.2345 46.6858 39.4539 45.5038 38.7534C44.5622 38.193 43.5204 37.7127 42.4987 37.2724L42.2984 37.1723C41.497 36.8121 40.7958 36.9722 40.1547 37.6727C39.5938 38.2931 38.9727 38.9736 38.4118 39.6741C37.971 40.2144 37.4902 40.1144 37.1496 39.9943C32.2813 38.113 28.8756 34.6906 26.9924 29.8273C26.792 29.3069 26.9122 28.8866 27.353 28.5664C27.6735 28.3262 27.9941 28.046 28.2545 27.7859C28.3346 27.7058 28.4348 27.6258 28.515 27.5457C28.9156 27.1855 29.2762 26.8452 29.6168 26.465C29.9774 26.0647 30.0776 25.6044 29.8973 25.064L29.8773 24.9839C29.7771 24.6237 29.6569 24.2835 29.5167 23.9832C28.4749 21.7017 27.0925 19.4201 25.029 16.6182C24.6684 16.1378 24.1876 15.8176 23.7068 15.7776C23.6467 15.7776 23.6066 15.7776 23.5465 15.7776C23.1659 15.7776 22.7852 15.9377 22.4246 16.2579C21.6433 16.9184 20.6416 17.819 19.7401 18.7797C18.1974 20.4408 16.9954 22.0819 16.0538 23.7631C15.8535 24.1233 15.7333 24.4035 15.7934 24.6837C15.8134 24.8438 15.8334 25.0039 15.8535 25.1641C15.8935 25.4042 15.9136 25.6444 15.9536 25.8645C16.3944 28.1661 17.2759 30.4677 18.6182 32.8694C21.0623 37.2324 24.408 41.1751 28.535 44.5574C31.6803 47.1192 34.7656 48.9605 37.971 50.1413C39.5537 50.7217 40.9961 51.0619 42.5187 51.222C42.5588 51.202 42.5989 51.202 42.6389 51.182C42.8192 51.122 43.0596 51.0419 43.24 50.9418C45.8243 49.4408 48.1683 47.5395 50.2118 45.2779C50.4923 44.9577 50.7327 44.5975 50.9731 44.2172L51.0332 44.1171C51.2536 43.7569 51.2736 43.4166 51.1334 42.9964ZM49.5306 43.7769C47.988 45.4981 46.3052 47.0191 44.4019 48.4001C43.861 48.8004 43.3802 49.1206 42.9394 49.4008C42.7391 49.5209 42.4787 49.6009 42.2383 49.6009C42.1782 49.6009 42.1381 49.6009 42.078 49.5809C39.6739 49.2407 37.3099 48.3801 34.8457 46.9791C28.1543 43.1365 22.9856 37.8128 19.4596 31.1482C18.3377 29.0267 17.6565 26.9853 17.356 24.9039C17.336 24.7638 17.3159 24.4235 17.4962 24.1434C19.0589 21.7217 20.9221 19.5002 23.0857 17.5388C23.1458 17.4788 23.226 17.4587 23.266 17.4387C23.266 17.4387 23.2861 17.4387 23.3061 17.4187L23.6267 17.2586L23.847 17.5188C23.8671 17.5388 23.8871 17.5788 23.9272 17.5988C23.9873 17.6789 24.0674 17.759 24.1275 17.839C25.7102 20.0205 27.1126 22.3821 28.3146 24.8839C28.4949 25.2841 28.4348 25.6044 28.1143 25.8846C27.6535 26.2648 27.2528 26.6251 26.8722 26.9653C26.4114 27.3856 25.9506 27.8059 25.4297 28.3262C25.2093 28.5464 25.1492 28.7866 25.2494 29.1468C25.7903 31.2683 26.792 33.2697 28.3146 35.251C30.6786 38.3131 33.7038 40.4346 37.3099 41.5954C37.4501 41.6354 37.5703 41.6754 37.7306 41.7155L37.8708 41.7555C38.3116 41.8756 38.5119 41.7155 38.6321 41.5754C39.4135 40.7348 40.1948 39.8542 40.8759 39.0937L40.896 39.0737C41.4169 38.4933 41.6172 38.4532 42.3384 38.7935C44.6824 39.8942 46.9462 41.2552 49.0899 42.8162C49.1901 42.8763 49.2702 42.9563 49.3503 43.0164C49.3904 43.0564 49.4305 43.0764 49.4906 43.1164L49.8712 43.4166L49.5306 43.7769Z" fill="white"/>
<path d="M34.9692 16.3039C36.76 16.3269 38.3671 16.6024 39.8594 17.1075C46.4026 19.3574 50.5581 25.0741 50.7188 31.9847C50.7418 32.5816 51.0862 32.9719 51.5913 32.9719C51.8438 32.9719 52.0734 32.8801 52.2111 32.6964C52.3718 32.5127 52.4407 32.2831 52.4178 32.0076L52.3948 31.5714C52.303 30.4924 52.2341 29.3444 52.0045 28.2883C50.3056 20.4824 43.3262 14.6968 35.3825 14.5591C35.3366 14.5591 35.2677 14.5591 35.1988 14.5591C35.1529 14.5591 35.084 14.5591 35.0381 14.5591C34.9692 14.5591 34.9233 14.5591 34.8774 14.5591C34.4871 14.582 34.2346 14.7657 34.0968 15.133C33.982 15.4086 34.0279 15.6611 34.1657 15.8907C34.3493 16.1432 34.6248 16.3039 34.9692 16.3039Z" fill="white"/>
<path d="M36.8288 21.6993C36.3007 21.6075 35.7038 21.5615 34.9921 21.5156C34.9691 21.5156 34.9691 21.5156 34.9462 21.5156C34.6707 21.5156 34.4411 21.6075 34.2804 21.7682C34.1197 21.9289 34.0278 22.1355 34.0278 22.3651C34.0278 22.8702 34.4181 23.2146 34.9691 23.2375C37.9997 23.3294 40.4333 24.615 42.1781 27.0946C43.1883 28.518 43.7164 30.194 43.7393 32.0766C43.7393 32.5587 44.0607 32.9261 44.5199 32.972C44.9561 33.0179 45.3464 32.7194 45.4383 32.3062C45.4612 32.2143 45.4612 32.0995 45.4612 31.9847C45.4612 31.9159 45.4612 31.87 45.4612 31.8011C45.3923 26.865 41.673 22.5258 36.8288 21.6993Z" fill="white"/>
<path d="M33.5 65.7568C51.315 65.7568 65.7568 51.315 65.7568 33.5C65.7568 15.685 51.315 1.24316 33.5 1.24316C15.685 1.24316 1.24316 15.685 1.24316 33.5C1.24316 51.315 15.685 65.7568 33.5 65.7568Z" stroke="white" stroke-width="1.5" stroke-miterlimit="10"/>
</svg>
