<svg width="435" height="142" viewBox="0 0 435 142" fill="none" xmlns="http://www.w3.org/2000/svg">
<path d="M30 72V24H12C8.625 24 5.78125 22.8437 3.46875 20.5312C1.15625 18.1562 0 15.3125 0 12H72C72 15.375 70.8125 18.2188 68.4375 20.5312C66.0625 22.8437 63.25 24 60 24H42V72H30ZM96 72C92.625 72 89.7812 70.8438 87.4688 68.5312C85.1562 66.1562 84 63.3125 84 60H156C156 63.375 154.812 66.2188 152.438 68.5312C150.062 70.8438 147.25 72 144 72H96ZM96 48C92.625 48 89.7812 46.8438 87.4688 44.5312C85.1562 42.1562 84 39.3125 84 36H156C156 39.375 154.812 42.2188 152.438 44.5312C150.062 46.8438 147.25 48 144 48H96ZM96 24C92.625 24 89.7812 22.8437 87.4688 20.5312C85.1562 18.1562 84 15.3125 84 12H156C156 15.375 154.812 18.2188 152.438 20.5312C150.062 22.8437 147.25 24 144 24H96ZM168 72C168 68.6875 169.156 65.875 171.469 63.5625C173.844 61.1875 176.688 60 180 60H228V48H168V12H240C240 15.375 238.812 18.2188 236.438 20.5312C234.062 22.8437 231.25 24 228 24H180V36H240V72H168ZM252 72V12H264V60H324C324 63.375 322.812 66.2188 320.438 68.5312C318.062 70.8438 315.25 72 312 72H252ZM336 72V36H408V72H396V48H348V72H336ZM348 24C344.625 24 341.781 22.8437 339.469 20.5312C337.156 18.1562 336 15.3125 336 12H408C408 15.375 406.812 18.2188 404.438 20.5312C402.062 22.8437 399.25 24 396 24H348Z" fill="black"/>
<path opacity="0.8" d="M149.88 120.12C148.776 120.12 147.784 119.872 146.904 119.376C146.024 118.864 145.328 118.128 144.816 117.168C144.304 116.208 144.048 115.048 144.048 113.688C144.048 112.312 144.304 111.152 144.816 110.208C145.344 109.248 146.048 108.52 146.928 108.024C147.808 107.528 148.792 107.28 149.88 107.28C151.08 107.28 152.152 107.552 153.096 108.096C154.056 108.624 154.808 109.368 155.352 110.328C155.896 111.288 156.168 112.408 156.168 113.688C156.168 114.952 155.896 116.072 155.352 117.048C154.808 118.008 154.056 118.76 153.096 119.304C152.152 119.848 151.08 120.12 149.88 120.12ZM143.376 120V102.192H145.08V111.12L144.84 113.664L145.008 116.208V120H143.376ZM149.76 118.608C150.656 118.608 151.456 118.408 152.16 118.008C152.864 117.592 153.424 117.016 153.84 116.28C154.256 115.528 154.464 114.664 154.464 113.688C154.464 112.696 154.256 111.832 153.84 111.096C153.424 110.36 152.864 109.792 152.16 109.392C151.456 108.976 150.656 108.768 149.76 108.768C148.864 108.768 148.056 108.976 147.336 109.392C146.632 109.792 146.072 110.36 145.656 111.096C145.256 111.832 145.056 112.696 145.056 113.688C145.056 114.664 145.256 115.528 145.656 116.28C146.072 117.016 146.632 117.592 147.336 118.008C148.056 118.408 148.864 118.608 149.76 118.608ZM159.386 124.776C158.794 124.776 158.226 124.68 157.682 124.488C157.154 124.296 156.698 124.008 156.314 123.624L157.106 122.352C157.426 122.656 157.77 122.888 158.138 123.048C158.522 123.224 158.946 123.312 159.41 123.312C159.97 123.312 160.45 123.152 160.85 122.832C161.266 122.528 161.658 121.984 162.026 121.2L162.842 119.352L163.034 119.088L168.218 107.4H169.898L163.586 121.512C163.234 122.328 162.842 122.976 162.41 123.456C161.994 123.936 161.538 124.272 161.042 124.464C160.546 124.672 159.994 124.776 159.386 124.776ZM162.746 120.36L156.938 107.4H158.714L163.85 118.968L162.746 120.36Z" fill="black"/>
<path d="M190.648 105.84L196.456 89.856H196.552L202.264 105.84H190.648ZM194.056 85.728L180.712 120H185.368L189.208 109.68H203.704L207.448 120H212.488L199.096 85.728H194.056ZM235.741 120V95.184H231.661V109.2C231.661 110.32 231.501 111.36 231.181 112.32C230.893 113.248 230.445 114.064 229.837 114.768C229.229 115.472 228.461 116.016 227.533 116.4C226.637 116.784 225.565 116.976 224.317 116.976C222.749 116.976 221.517 116.528 220.621 115.632C219.725 114.736 219.277 113.52 219.277 111.984V95.184H215.197V111.504C215.197 112.848 215.325 114.08 215.581 115.2C215.869 116.288 216.349 117.232 217.021 118.032C217.693 118.832 218.573 119.456 219.661 119.904C220.749 120.32 222.109 120.528 223.741 120.528C225.565 120.528 227.149 120.176 228.493 119.472C229.837 118.736 230.941 117.6 231.805 116.064H231.901V120H235.741ZM247.533 95.184V87.744H243.453V95.184H239.229V98.784H243.453V114.576C243.453 115.728 243.565 116.656 243.789 117.36C244.013 118.064 244.349 118.608 244.797 118.992C245.277 119.376 245.885 119.648 246.621 119.808C247.389 119.936 248.301 120 249.357 120H252.477V116.4H250.605C249.965 116.4 249.437 116.384 249.021 116.352C248.637 116.288 248.333 116.176 248.109 116.016C247.885 115.856 247.725 115.632 247.629 115.344C247.565 115.056 247.533 114.672 247.533 114.192V98.784H252.477V95.184H247.533ZM259.986 107.616C259.986 106.112 260.178 104.784 260.562 103.632C260.978 102.448 261.538 101.456 262.242 100.656C262.946 99.856 263.762 99.248 264.69 98.832C265.65 98.416 266.658 98.208 267.714 98.208C268.77 98.208 269.762 98.416 270.69 98.832C271.65 99.248 272.482 99.856 273.186 100.656C273.89 101.456 274.434 102.448 274.818 103.632C275.234 104.784 275.442 106.112 275.442 107.616C275.442 109.12 275.234 110.464 274.818 111.648C274.434 112.8 273.89 113.776 273.186 114.576C272.482 115.344 271.65 115.936 270.69 116.352C269.762 116.768 268.77 116.976 267.714 116.976C266.658 116.976 265.65 116.768 264.69 116.352C263.762 115.936 262.946 115.344 262.242 114.576C261.538 113.776 260.978 112.8 260.562 111.648C260.178 110.464 259.986 109.12 259.986 107.616ZM255.666 107.616C255.666 109.44 255.922 111.136 256.434 112.704C256.946 114.272 257.714 115.648 258.738 116.832C259.762 117.984 261.026 118.896 262.53 119.568C264.034 120.208 265.762 120.528 267.714 120.528C269.698 120.528 271.426 120.208 272.898 119.568C274.402 118.896 275.666 117.984 276.69 116.832C277.714 115.648 278.482 114.272 278.994 112.704C279.506 111.136 279.762 109.44 279.762 107.616C279.762 105.792 279.506 104.096 278.994 102.528C278.482 100.928 277.714 99.552 276.69 98.4C275.666 97.216 274.402 96.288 272.898 95.616C271.426 94.944 269.698 94.608 267.714 94.608C265.762 94.608 264.034 94.944 262.53 95.616C261.026 96.288 259.762 97.216 258.738 98.4C257.714 99.552 256.946 100.928 256.434 102.528C255.922 104.096 255.666 105.792 255.666 107.616Z" fill="#464646"/>
<path d="M290.236 95.184V87.744H286.156V95.184H281.932V98.784H286.156V114.576C286.156 115.728 286.268 116.656 286.492 117.36C286.716 118.064 287.052 118.608 287.5 118.992C287.98 119.376 288.588 119.648 289.324 119.808C290.092 119.936 291.004 120 292.06 120H295.18V116.4H293.308C292.668 116.4 292.14 116.384 291.724 116.352C291.34 116.288 291.036 116.176 290.812 116.016C290.588 115.856 290.428 115.632 290.332 115.344C290.268 115.056 290.236 114.672 290.236 114.192V98.784H295.18V95.184H290.236ZM299.569 95.184V120H303.649V108.96C303.649 107.36 303.809 105.952 304.129 104.736C304.449 103.488 304.961 102.432 305.665 101.568C306.369 100.704 307.297 100.048 308.449 99.6C309.601 99.152 310.993 98.928 312.625 98.928V94.608C310.417 94.544 308.593 94.992 307.153 95.952C305.713 96.912 304.497 98.4 303.505 100.416H303.409V95.184H299.569ZM337.681 119.904C336.977 120.32 336.001 120.528 334.753 120.528C333.697 120.528 332.849 120.24 332.209 119.664C331.601 119.056 331.297 118.08 331.297 116.736C330.177 118.08 328.865 119.056 327.361 119.664C325.889 120.24 324.289 120.528 322.561 120.528C321.441 120.528 320.369 120.4 319.345 120.144C318.353 119.888 317.489 119.488 316.753 118.944C316.017 118.4 315.425 117.696 314.977 116.832C314.561 115.936 314.353 114.864 314.353 113.616C314.353 112.208 314.593 111.056 315.073 110.16C315.553 109.264 316.177 108.544 316.945 108C317.745 107.424 318.641 106.992 319.633 106.704C320.657 106.416 321.697 106.176 322.753 105.984C323.873 105.76 324.929 105.6 325.921 105.504C326.945 105.376 327.841 105.216 328.609 105.024C329.377 104.8 329.985 104.496 330.433 104.112C330.881 103.696 331.105 103.104 331.105 102.336C331.105 101.44 330.929 100.72 330.577 100.176C330.257 99.632 329.825 99.216 329.281 98.928C328.769 98.64 328.177 98.448 327.505 98.352C326.865 98.256 326.225 98.208 325.585 98.208C323.857 98.208 322.417 98.544 321.265 99.216C320.113 99.856 319.489 101.088 319.393 102.912H315.313C315.377 101.376 315.697 100.08 316.273 99.024C316.849 97.968 317.617 97.12 318.577 96.48C319.537 95.808 320.625 95.328 321.841 95.04C323.089 94.752 324.417 94.608 325.825 94.608C326.945 94.608 328.049 94.688 329.137 94.848C330.257 95.008 331.265 95.344 332.161 95.856C333.057 96.336 333.777 97.024 334.321 97.92C334.865 98.816 335.137 99.984 335.137 101.424V114.192C335.137 115.152 335.185 115.856 335.281 116.304C335.409 116.752 335.793 116.976 336.433 116.976C336.785 116.976 337.201 116.896 337.681 116.736V119.904ZM331.057 107.184C330.545 107.568 329.873 107.856 329.041 108.048C328.209 108.208 327.329 108.352 326.401 108.48C325.505 108.576 324.593 108.704 323.665 108.864C322.737 108.992 321.905 109.216 321.169 109.536C320.433 109.856 319.825 110.32 319.345 110.928C318.897 111.504 318.673 112.304 318.673 113.328C318.673 114 318.801 114.576 319.057 115.056C319.345 115.504 319.697 115.872 320.113 116.16C320.561 116.448 321.073 116.656 321.649 116.784C322.225 116.912 322.833 116.976 323.473 116.976C324.817 116.976 325.969 116.8 326.929 116.448C327.889 116.064 328.673 115.6 329.281 115.056C329.889 114.48 330.337 113.872 330.625 113.232C330.913 112.56 331.057 111.936 331.057 111.36V107.184ZM344.454 107.808C344.454 106.592 344.582 105.408 344.838 104.256C345.094 103.104 345.51 102.08 346.086 101.184C346.662 100.288 347.43 99.568 348.39 99.024C349.35 98.48 350.518 98.208 351.894 98.208C353.302 98.208 354.502 98.48 355.494 99.024C356.486 99.536 357.286 100.224 357.894 101.088C358.534 101.952 358.998 102.96 359.286 104.112C359.574 105.232 359.718 106.4 359.718 107.616C359.718 108.768 359.574 109.904 359.286 111.024C359.03 112.144 358.598 113.152 357.99 114.048C357.382 114.912 356.598 115.616 355.638 116.16C354.678 116.704 353.51 116.976 352.134 116.976C350.822 116.976 349.67 116.72 348.678 116.208C347.718 115.696 346.918 115.008 346.278 114.144C345.67 113.28 345.206 112.304 344.886 111.216C344.598 110.096 344.454 108.96 344.454 107.808ZM363.654 120V85.728H359.574V98.496H359.478C359.03 97.76 358.47 97.152 357.798 96.672C357.158 96.16 356.47 95.76 355.734 95.472C354.998 95.152 354.262 94.928 353.526 94.8C352.79 94.672 352.102 94.608 351.462 94.608C349.574 94.608 347.91 94.96 346.47 95.664C345.062 96.336 343.878 97.264 342.918 98.448C341.99 99.6 341.286 100.96 340.806 102.528C340.358 104.096 340.134 105.76 340.134 107.52C340.134 109.28 340.374 110.944 340.854 112.512C341.334 114.08 342.038 115.456 342.966 116.64C343.926 117.824 345.11 118.768 346.518 119.472C347.958 120.176 349.638 120.528 351.558 120.528C353.286 120.528 354.87 120.224 356.31 119.616C357.75 119.008 358.806 118.016 359.478 116.64H359.574V120H363.654ZM387.163 105.216H372.907C372.971 104.256 373.179 103.36 373.531 102.528C373.883 101.664 374.363 100.912 374.971 100.272C375.579 99.632 376.299 99.136 377.131 98.784C377.995 98.4 378.955 98.208 380.011 98.208C381.035 98.208 381.963 98.4 382.795 98.784C383.659 99.136 384.395 99.632 385.003 100.272C385.643 100.88 386.139 101.616 386.491 102.48C386.875 103.344 387.099 104.256 387.163 105.216ZM391.099 112.128H387.067C386.715 113.76 385.979 114.976 384.859 115.776C383.771 116.576 382.363 116.976 380.635 116.976C379.291 116.976 378.123 116.752 377.131 116.304C376.139 115.856 375.323 115.264 374.683 114.528C374.043 113.76 373.579 112.896 373.291 111.936C373.003 110.944 372.875 109.904 372.907 108.816H391.483C391.547 107.312 391.403 105.728 391.051 104.064C390.731 102.4 390.123 100.864 389.227 99.456C388.363 98.048 387.195 96.896 385.723 96C384.283 95.072 382.459 94.608 380.251 94.608C378.555 94.608 376.987 94.928 375.547 95.568C374.139 96.208 372.907 97.104 371.851 98.256C370.827 99.408 370.027 100.768 369.451 102.336C368.875 103.904 368.587 105.632 368.587 107.52C368.651 109.408 368.923 111.152 369.403 112.752C369.915 114.352 370.667 115.728 371.659 116.88C372.651 118.032 373.867 118.928 375.307 119.568C376.779 120.208 378.507 120.528 380.491 120.528C383.307 120.528 385.643 119.824 387.499 118.416C389.355 117.008 390.555 114.912 391.099 112.128ZM395.569 95.184V120H399.649V108.96C399.649 107.36 399.809 105.952 400.129 104.736C400.449 103.488 400.961 102.432 401.665 101.568C402.369 100.704 403.297 100.048 404.449 99.6C405.601 99.152 406.993 98.928 408.625 98.928V94.608C406.417 94.544 404.593 94.992 403.153 95.952C401.713 96.912 400.497 98.4 399.505 100.416H399.409V95.184H395.569Z" fill="url(#paint0_linear_60_239)"/>
<defs>
<linearGradient id="paint0_linear_60_239" x1="270.57" y1="110.684" x2="334.257" y2="110.684" gradientUnits="userSpaceOnUse">
<stop stop-color="#B91718"/>
<stop offset="1" stop-color="#7E0505"/>
</linearGradient>
</defs>
</svg>
